<?xml version="1.0" encoding="UTF-8"?>
<svg id="Capa_2" xmlns="http://www.w3.org/2000/svg" width="35" height="35"  viewBox="0 0 64.56 22.55">
  <defs>
    <style>
      .cls-1 {
        fill: red;
      }
    </style>
  </defs>
  <g id="Capa_1-2" data-name="Capa_1">
    <g>
      <path class="cls-1" d="M11.4,11.74c-.28-1.8-1.43-2.76-3.25-2.76-2.82,0-3.75,2.85-3.75,5.2s.9,5.05,3.65,5.05c2.04,0,3.22-1.3,3.5-3.25h4.24c-.56,4.24-3.5,6.57-7.71,6.57C3.25,22.55,0,19.14,0,14.34S2.97,5.67,8.18,5.67c3.78,0,7.25,1.98,7.53,6.07h-4.31Z"/>
      <path class="cls-1" d="M17.47,0h4.4v22.12h-4.4V0Z"/>
      <path class="cls-1" d="M28.93,3.62h-4.4V0h4.4v3.62ZM24.53,6.1h4.4v16.01h-4.4V6.1Z"/>
      <path class="cls-1" d="M42.38,11.74c-.28-1.8-1.43-2.76-3.25-2.76-2.82,0-3.75,2.85-3.75,5.2s.9,5.05,3.65,5.05c2.04,0,3.22-1.3,3.5-3.25h4.24c-.56,4.24-3.5,6.57-7.71,6.57-4.83,0-8.08-3.41-8.08-8.21s2.97-8.67,8.18-8.67c3.78,0,7.25,1.98,7.53,6.07h-4.31Z"/>
      <path class="cls-1" d="M48.73,0h4.4v11.86l5.54-5.76h5.2l-6.04,5.89,6.72,10.13h-5.33l-4.4-7.16-1.7,1.64v5.51h-4.4V0Z"/>
    </g>
  </g>
</svg>