<?xml version="1.0" encoding="UTF-8"?>
<svg id="Capa_2" data-name="Capa 2" xmlns="http://www.w3.org/2000/svg" viewBox="0 0 438 189.11">
  <defs>
    <style>
      .cls-1 {
        fill: red;
      }

      .cls-1, .cls-2 {
        stroke-width: 0px;
      }

      .cls-2 {
        fill: #fff;
      }
    </style>
  </defs>
  <g id="Capa_1-2" data-name="Capa 1">
    <g>
      <path class="cls-1" d="M321.31,153.31c-4.5,3.59-9,5.38-13.5,5.38-3.97,0-7.14-1.23-9.53-3.7,11.91-11.77,17.86-20.79,17.86-27.06s-3.77-9.08-11.31-9.08-18.03,2.44-31.06,7.31c-13.03,4.88-24.58,11.71-34.63,20.51-3.19,2.79-5.88,5.63-8.05,8.49-27.65,20.39-47.26,30.59-58.83,30.59-3.97,0-5.95-1.4-5.95-4.19s4.37-7.49,13.1-13.75l12.11-8.72c8.86-6.37,14.59-11.65,17.17-15.84,2.58-4.19,3.87-8.52,3.87-12.99,0-7.15-4.18-10.73-12.52-10.73-7.82,0-19.88,4.84-36.18,14.5-16.3,9.67-31.74,20.37-46.32,32.11l-1.79-.5c14.81-15.32,29.43-29.75,43.84-43.29l21.23-19.97c1.98-1.79,10.6-5.66,25.83-11.6,36.17-14.01,65.64-28.86,88.43-44.55,22.79-15.69,34.18-27.85,34.18-36.48,0-6.5-4.04-9.75-12.12-9.75-3.05,0-7.26.73-12.63,2.19-5.37,1.46-13.02,4.79-22.96,10-9.94,5.21-20.04,11.57-30.31,19.08-10.27,7.51-20.77,15.91-31.51,25.22l-54.86,47.4c-.27.23-7.49,4.48-21.66,12.78-14.17,8.29-26.4,16.08-36.68,23.37l-18.98,13.28-17.86,12.84c6.88-6.96,10.32-14.53,10.32-22.72,0-4.04-.47-8.5-1.39-13.38-.93-4.88-1.39-8.5-1.39-10.86,0-2.92.79-5.33,2.38-7.23,1.59-1.91,5.16-4.77,10.72-8.58l-1.19-1.68-72.83,51.61,1.39,1.18,58.55-41.02c-1.32,3.71-2.25,7.86-2.78,12.47-1.32,14.27-8.57,27.86-21.73,40.77-13.17,12.92-24.98,19.38-35.43,19.38-7.41,0-11.11-2.52-11.11-7.56,1.32.34,2.38.5,3.18.5,1.98,0,3.87-.76,5.66-2.27,1.79-1.51,2.68-3.22,2.68-5.13,0-1.34-.63-2.52-1.89-3.53-1.26-1.01-2.75-1.51-4.47-1.51-2.78,0-5.19.92-7.24,2.77s-3.08,4.06-3.08,6.64c0,3.48,1.62,6.3,4.86,8.49,3.24,2.19,7.11,3.28,11.61,3.28,18.52,0,42.67-11.09,72.44-33.28h0c33.38-23.42,56.08-38.05,68.08-43.87l.97.84-81.95,74.3h19.44c6.49-4.71,15.57-11.79,27.24-21.27,11.67-9.47,23.46-17.82,35.39-25.05,11.93-7.23,21.21-12.07,27.84-14.54,6.63-2.46,11.33-3.7,14.12-3.7,1.99,0,3.81.53,5.47,1.59,1.66,1.06,2.49,2.43,2.49,4.11,0,1.9-1.16,4.02-3.47,6.37-2.32,2.35-8.6,7.21-18.85,14.59-10.25,7.38-16.9,12.77-19.95,16.18-3.05,3.41-4.56,7.13-4.56,11.15,0,3.58,1.02,6.52,3.08,8.81,2.05,2.29,4.79,3.44,8.24,3.44,5.03,0,12.11-2.23,21.24-6.69,9.13-4.46,17.66-9.53,25.6-15.22l9.23-6.59c-2.97,4.96-4.47,10.04-4.47,15.21,0,4.15,1.32,7.4,3.97,9.75,2.64,2.35,5.89,3.53,9.72,3.53,7.41,0,16.67-2.97,27.78-8.91,11.11-5.94,21.56-13.28,31.36-22.02,2.91,2.58,6.48,3.87,10.72,3.87,5.16,0,10.19-1.96,15.08-5.88l-1.39-1.18ZM229.23,58.25c26.38-23.25,45.67-38.41,57.86-45.47,12.19-7.06,22.34-10.59,30.42-10.59,5.7,0,8.55,2.35,8.55,7.06,0,1.46-.4,3.03-1.19,4.71-1.59,3.7-5.1,8.24-10.54,13.62-7.03,7.06-15.98,14.15-26.84,21.26-10.87,7.12-24.33,14.6-40.36,22.44-10.47,5.04-20.88,9.64-31.22,13.78-17.5,6.84-26.25,10.14-26.25,9.92,0-1.23,13.19-13.47,39.57-36.73ZM289.31,160.62c-7.85,7.01-16.96,12.94-27.33,17.82-10.36,4.88-18.31,7.31-23.86,7.31-2.38,0-4.49-.64-6.34-1.93-1.85-1.29-2.77-2.72-2.77-4.29,0-5.49,10.13-16.75,30.39-33.79,20.26-17.03,35.41-25.55,45.44-25.55,2.38,0,4.52.67,6.43,2.02,1.91,1.34,2.87,3.08,2.87,5.21,0,4.03-2.18,8.83-6.53,14.37-4.36,5.55-10.46,11.82-18.31,18.83Z"/>
      <path class="cls-1" d="M422.92,162.94c-22.49,16.33-38.1,24.5-46.84,24.5-2.38,0-4.53-.76-6.45-2.27-1.92-1.52-2.88-3.17-2.88-4.97,0-4.61,8.56-15.56,25.7-32.86,17.13-17.3,29.47-25.95,37.01-25.95,3.97,0,5.95,1.18,5.95,3.53,0,.9-.46,1.34-1.39,1.34-.27,0-.79-.14-1.59-.42-.79-.28-1.59-.42-2.38-.42-2.12,0-3.97.65-5.56,1.93-1.59,1.29-2.38,2.72-2.38,4.29,0,3.14,1.72,4.71,5.16,4.71,2.51,0,4.93-1.03,7.24-3.11,2.31-2.07,3.47-4.4,3.47-6.98,0-4.48-2.91-6.72-8.73-6.72-8.34,0-20.18,7.17-35.52,21.52.92-4.03,1.39-7.23,1.39-9.58,0-3.81-1.39-6.83-4.17-9.08-2.78-2.24-5.82-3.36-9.13-3.36-4.63,0-9.4,1.18-14.29,3.53-4.9,2.35-12.7,7.29-23.42,14.79l-22.82,15.97,1.39,1.18,18.06-12.61c12.17-8.41,20.94-13.98,26.3-16.73,5.36-2.74,10.29-4.12,14.79-4.12,5.03,0,7.54,2.14,7.54,6.4,0,6.29-9,17.87-26.99,34.72-17.99,16.85-31.55,25.28-40.68,25.28-2.25,0-4.27-.57-6.05-1.71-1.79-1.14-2.68-2.45-2.68-3.94,0-.91.36-1.74,1.09-2.48.73-.74,1.29-1.11,1.69-1.11.13,0,.69.36,1.69,1.09.99.73,2.02,1.09,3.08,1.09,2.25,0,4.33-.73,6.25-2.18,1.92-1.46,2.88-3.03,2.88-4.71,0-1.12-.56-2.1-1.69-2.94-1.13-.84-2.42-1.26-3.87-1.26-3.05,0-6.09,1.23-9.13,3.7-3.05,2.47-4.56,5.21-4.56,8.24,0,2.24,1.06,4.12,3.18,5.63,2.11,1.51,4.89,2.27,8.34,2.27,4.1,0,8.63-1.15,13.59-3.45,4.96-2.3,14.39-8.54,28.28-18.74-1.59,4.15-2.38,7.68-2.38,10.59,0,3.92,1.45,6.81,4.37,8.66,2.91,1.85,5.95,2.77,9.13,2.77,4.23,0,10.29-1.74,18.16-5.21,7.87-3.47,22.72-13.22,44.55-29.25l-1.39-1.18-13.3,9.63Z"/>
    </g>
    <g>
      <g>
        <path class="cls-2" d="M0,96.81h23.52v12.28h.35c6.49-9.3,15.97-14.74,27.73-14.74s21.58,4.21,26.5,15.09c5.26-7.9,14.74-15.09,27.38-15.09,19.3,0,33.17,8.95,33.17,32.47v60.72h-24.92v-51.42c0-12.11-1.05-22.11-15.27-22.11s-16.67,11.58-16.67,22.99v50.54h-24.92v-50.89c0-10.53.7-22.64-15.09-22.64-4.91,0-16.85,3.16-16.85,20.88v52.65H0v-90.73Z"/>
        <path class="cls-2" d="M167.07,96.81h23.69v16.85h.35c4.56-11.41,16.85-19.3,28.96-19.3,1.75,0,3.86.35,5.44.88v23.17c-2.28-.53-5.97-.88-8.95-.88-18.25,0-24.57,13.16-24.57,29.13v40.89h-24.92v-90.73Z"/>
        <path class="cls-2" d="M346.94,159.1h-51.95v-22.81l53.35-71.6h22.29v73.88h16.32v20.53h-16.32v28.43h-23.69v-28.43ZM346.94,95.93h-.53l-31.76,42.64h32.29v-42.64Z"/>
      </g>
      <path class="cls-2" d="M414.19,39.97c12.58,0,23.8,9.05,23.8,23.12s-11.22,23.24-23.8,23.24-23.8-9.11-23.8-23.24,11.22-23.12,23.8-23.12ZM414.19,81.37c9.61,0,17.48-7.69,17.48-18.28s-7.87-18.16-17.48-18.16-17.48,7.62-17.48,18.16,7.75,18.28,17.48,18.28ZM404.96,50.07h9.79c6.51,0,10.17,2.04,10.17,7.69,0,4.77-2.98,6.63-6.82,6.94l6.94,11.34h-5.39l-6.32-11.09h-3.22v11.09h-5.14v-25.97ZM410.1,60.92h4.59c2.91,0,5.08-.43,5.08-3.6,0-2.79-2.98-3.22-5.33-3.22h-4.34v6.82Z"/>
    </g>
  </g>
</svg>