<?xml version="1.0" encoding="UTF-8"?>
<svg id="Capa_2" data-name="Capa 2" xmlns="http://www.w3.org/2000/svg" viewBox="0 0 437.99 147.56">
  <defs>
    <style>
      .cls-1 {
        fill: #fff;
        stroke-width: 0px;
      }
    </style>
  </defs>
  <g id="Capa_1-2" data-name="Capa 1">
    <g>
      <g>
        <path class="cls-1" d="M0,56.84h23.52v12.28h.35c6.49-9.3,15.97-14.74,27.73-14.74s21.58,4.21,26.5,15.09c5.26-7.9,14.74-15.09,27.38-15.09,19.3,0,33.17,8.95,33.17,32.47v60.72h-24.92v-51.42c0-12.11-1.05-22.11-15.27-22.11s-16.67,11.58-16.67,22.99v50.54h-24.92v-50.89c0-10.53.7-22.64-15.09-22.64-4.91,0-16.85,3.16-16.85,20.88v52.65H0V56.84Z"/>
        <path class="cls-1" d="M167.06,56.84h23.69v16.85h.35c4.56-11.41,16.85-19.3,28.96-19.3,1.75,0,3.86.35,5.44.88v23.17c-2.28-.53-5.97-.88-8.95-.88-18.25,0-24.57,13.16-24.57,29.13v40.89h-24.92V56.84Z"/>
        <path class="cls-1" d="M346.93,119.13h-51.95v-22.81l53.35-71.6h22.29v73.88h16.32v20.53h-16.32v28.43h-23.69v-28.43ZM346.93,55.96h-.53l-31.76,42.64h32.29v-42.64Z"/>
      </g>
      <path class="cls-1" d="M414.19,0c12.58,0,23.8,9.05,23.8,23.12s-11.22,23.24-23.8,23.24-23.8-9.11-23.8-23.24S401.61,0,414.19,0ZM414.19,41.4c9.61,0,17.48-7.69,17.48-18.28s-7.87-18.16-17.48-18.16-17.48,7.62-17.48,18.16,7.75,18.28,17.48,18.28ZM404.95,10.1h9.79c6.51,0,10.17,2.04,10.17,7.69,0,4.77-2.98,6.63-6.82,6.94l6.94,11.34h-5.39l-6.32-11.09h-3.22v11.09h-5.14V10.1ZM410.1,20.95h4.59c2.91,0,5.08-.43,5.08-3.6,0-2.79-2.98-3.22-5.33-3.22h-4.34v6.82Z"/>
    </g>
  </g>
</svg>