<?xml version="1.0" encoding="UTF-8"?>
<svg id="Capa_2" data-name="Capa 2" xmlns="http://www.w3.org/2000/svg" viewBox="0 0 372.79 81.47">
  <defs>
    <style>
      .cls-1 {
        fill: #fff;
      }
    </style>
  </defs>
  <g id="Capa_1-2" data-name="Capa 1">
    <g>
      <path d="m218.28,42.39c.01.23.03.65.05,1.08.01.33-.03.63-.22.91-.16.23-.24.51-.36.77-.22.45-.42.9-.66,1.34-.14.25-.32.47-.5.69-.19.25-.45.33-.76.29-.14-.02-.28-.03-.42-.06-.41-.1-.83-.21-1.24-.32-.35-.36-.7-.7-1.04-1.07-.09-.1-.14-.25-.16-.39-.05-.36-.14-.7-.29-1.02-.15-.33-.21-.68-.19-1.04.02-.43-.02-.85-.16-1.26-.04-.13-.07-.28-.05-.42.01-.14.04-.3.13-.39.65-.64,1-1.45,1.29-2.3.14-.4.3-.8.49-1.18.35-.7.66-1.42.86-2.18.06-.21.16-.39.28-.57.78-1.1,1.61-2.17,2.3-3.34.14-.23.38-.43.61-.58.46-.29.85-.64,1.18-1.07.29-.38.69-.62,1.07-.87.42-.27.81-.58,1.15-.95.27-.29.58-.53.93-.71.16-.08.33-.16.46-.28.43-.41.88-.36,1.38-.14.42.19.84.38,1.23.64.43.29.74.67.85,1.18.17.73.47,1.42.48,2.18,0,.14.03.29.09.42.2.47.27.96.29,1.46,0,.18.1.34.22.47.15.17.41.23.58.1.25-.2.52-.38.72-.62.39-.46.78-.93,1.12-1.43.39-.57.88-1.03,1.48-1.35.29-.15.42-.35.43-.67,0-.24.14-.4.37-.46.03,0,.07-.02.1-.03.14-.05.26-.13.32-.26.37-.72.99-1.2,1.61-1.69.42-.33.82-.68,1.15-1.1.15-.19.35-.35.54-.51.16-.14.34-.26.48-.42.3-.33.61-.58,1.08-.61.16-.01.33-.13.46-.24.35-.3.85-.19,1.1.21.19.3.37.61.56.91.07.12.11.28.21.37.67.56.92,1.44,1.58,2.01.12.11.22.3.24.47.1.69.46,1.27.76,1.87.23.46.42.89.41,1.41,0,.21.07.42.16.61.17.35.34.7.56,1.02.41.59.69,1.24.97,1.89.17.39.34.79.66,1.09.14.13.31.19.49.15.14-.02.27-.08.41-.12.22-.07.42-.02.6.11.11.08.22.18.33.27.2.16.42.24.69.22,1.35-.05,1.34-.06,2.34-.98.32-.3.58-.63.71-1.05.14-.46.4-.83.76-1.14.38-.33.7-.71.99-1.11.17-.23.36-.45.57-.64.56-.49,1.1-1.01,1.65-1.52.47-.44.97-.84,1.37-1.34.09-.11.21-.19.33-.27.42-.33.82-.68,1.18-1.08.31-.35.67-.61,1.15-.73.44-.11.85-.36,1.27-.54.49-.22.96-.47,1.35-.85.19-.18.42-.28.68-.25.56.07,1.13.13,1.65.4.45.23.87.47,1.17.9.12.17.29.32.43.47.31.35.6.7.78,1.14.12.29.31.56.46.84.17.33.42.57.76.71.2.08.38.19.58.27.14.06.29.03.4-.06.17-.13.32-.28.48-.42.08-.07.17-.13.25-.19.09-.06.33-.02.39.09.16.28.33.55.46.84.27.63.59,1.22,1.1,1.69.28.26.42.58.41.95,0,.42.17.76.42,1.07.13.17.27.33.42.48.28.3.53.47,1.04.22.13-.06.26-.11.4-.14.14-.03.28,0,.39.11.11.11.14.25.09.39-.06.16-.16.32-.23.48-.09.2-.01.46.15.58.2.14.54.14.7,0,.08-.07.15-.15.22-.23.14-.16.27-.33.41-.49.23-.25.5-.3.75-.09.23.2.48.29.77.31.27.01.46.18.6.4.08.12.14.25.2.38.19.38.37.77.58,1.14.15.26.25.51.24.81,0,.4.09.77.23,1.14.1.27.16.55.22.82.09.42-.06.59-.49.62-.07,0-.14,0-.21,0-.31-.03-.55.11-.76.32-.25.25-.51.5-.74.77-.27.3-.61.51-.96.67-.53.24-1.08.37-1.55-.19-.29-.34-.7-.48-1.15-.47-.37.01-.7-.09-1.03-.25-.22-.11-.46-.22-.7-.26-.52-.08-.92-.37-1.26-.74-.29-.32-.63-.58-1.01-.77-.16-.08-.33-.13-.5-.16-.18-.04-.36,0-.5.13-.16.14-.3.3-.44.46-.38.44-.85.76-1.39.96-.5.19-.98.41-1.4.76-.16.13-.37.2-.56.3-.34.18-.73.29-1,.59-.15.17-.37.23-.59.21-.55-.06-1.06.07-1.57.23-.48.15-.97.24-1.46.3-.22.02-.41.12-.56.29-.12.13-.24.27-.36.39-.31.32-.68.51-1.15.46-.4-.04-.77.06-1.14.22-.29.13-.6.22-.9.34-.47.18-.94.32-1.44.39-.32.04-.64.06-.95.12-1.17.22-2.08-.3-2.9-1.04-.2-.18-.35-.45-.48-.7-.33-.64-.73-1.22-1.17-1.78-.16-.21-.43-.29-.67-.17-.59.28-1.23.34-1.87.42-.43.06-.85.03-1.27-.09-.55-.15-1.1-.25-1.62-.52-.32-.17-.62-.34-.87-.6-.07-.08-.15-.15-.22-.23-.25-.28-.53-.47-.93-.4-.06.01-.15,0-.2-.04-.06-.03-.1-.1-.13-.16-.03-.06-.04-.14-.04-.21.07-.75-.25-1.37-.63-1.99-.56-.91-1.04-1.86-1.37-2.88-.12-.37-.28-.73-.4-1.1-.07-.2-.15-.41-.14-.62.03-.68-.34-1.14-.78-1.57-.11-.11-.26-.11-.4-.09-.07.01-.14.04-.2.06-.41.15-.76.41-1.06.71-.45.45-.87.94-1.15,1.53-.05.1-.08.2-.15.28-.41.44-.79.94-1.26,1.3-.47.35-.77.83-1.18,1.22-.41.4-.76.85-1.05,1.34-.09.15-.23.27-.33.41-.34.46-.67.92-1,1.38-.16.23-.31.48-.48.71-.25.33-.57.52-1,.54-.39.02-.78.1-1.17.14-.25.02-.5.03-.74.03-.1,0-.23-.01-.31-.07-.69-.49-1.5-.82-2.07-1.48-.15-.17-.24-.35-.25-.57,0-.14-.01-.28-.01-.43-.02-.76-.19-1.47-.57-2.14-.28-.49-.5-1.02-.59-1.59-.03-.22-.14-.4-.28-.57-.2-.23-.46-.34-.76-.3-.1.01-.2.07-.28.13-.05.04-.08.12-.1.19-.11.43-.35.79-.65,1.09-.78.81-1.34,1.75-1.73,2.79-.03.07-.06.13-.09.19q-.46,1.09-.44,2.27c0,.25,0,.5,0,.95Zm37.51-2.43s0,0,0,0c.14,0,.29,0,.43,0,.62.02,1.18-.07,1.69-.49.41-.34.92-.53,1.49-.44.29.04.56-.06.81-.22.36-.23.73-.44,1.1-.65.52-.3,1.03-.62,1.62-.8.47-.15.9-.41,1.28-.75.29-.26.67-.43.91-.73.24-.29.35-.69.52-1.04.03-.06.06-.13.09-.19.11-.24.12-.47.05-.73-.17-.54-.32-1.09-.47-1.64-.06-.21-.17-.39-.31-.55-.54-.63-1.24-.93-2.07-.97-.26-.01-.49.03-.71.18-.58.41-1.19.78-1.85,1.06-.25.11-.46.33-.67.52-.29.26-.56.55-.84.82-.35.35-.72.69-1.06,1.06-.22.24-.45.46-.77.56-.4.13-.64.41-.82.78-.34.7-.72,1.37-1.26,1.97-.48.52-.55,1.22-.5,1.91.01.16.2.35.35.35.32,0,.64,0,.96,0Z"/>
      <path d="m161.1,41.33c-.12.01-.23.04-.34.03-.42-.03-.77.08-1.06.39-.25.28-.58.4-.94.46-.35.06-.69.17-1.04.24-.18.04-.36-.02-.5-.13-.27-.23-.53-.47-.81-.7-.29-.23-.49-.5-.51-.89,0-.17-.07-.35-.13-.51-.12-.34-.16-.69-.16-1.05,0-.61-.02-1.21-.03-1.82,0-.39-.04-.78-.21-1.15-.16-.33-.19-.68-.15-1.04.07-.61-.02-1.21-.18-1.8-.12-.45-.2-.91-.2-1.37,0-.73-.15-1.42-.45-2.07-.18-.4-.26-.81-.3-1.24-.06-.67-.14-1.35-.21-2.02-.02-.18-.03-.36-.08-.53-.25-.82-.29-1.68-.38-2.53-.06-.57-.09-1.13-.25-1.69-.13-.45-.11-.92-.09-1.38.03-.61.03-1.21-.26-1.77-.03-.06-.05-.14-.06-.2-.04-.9-.39-1.73-.52-2.61-.05-.35-.09-.71-.13-1.06-.15-1.38-.14-2.77-.13-4.16,0-.64-.05-1.28-.08-1.92-.01-.28-.02-.57,0-.85.02-.27.21-.5.45-.53.39-.06.77-.14,1.13-.29.16-.06.35-.06.53-.05.14,0,.29.04.4.11.42.28.8.61,1.05,1.05.19.33.31.72.41,1.09.13.48.22.97.3,1.46.05.31.08.64.09.95.02.64.02,1.28.03,1.92.01.68.06,1.34.27,2,.15.47.19.98.29,1.47.1.52.22,1.04.31,1.57.05.28.09.57.06.85-.04.48.08.91.31,1.33.13.25.27.51.33.78.08.34.04.71.13,1.05.08.3.31.57.39.87.14.49.15,1.01-.14,1.44-.35.51-.36.97,0,1.48.11.16.16.4.17.61.04.65.19,1.27.43,1.87.13.33.22.68.25,1.03.07.75.22,1.48.47,2.18.15.44.3.87.35,1.34.02.18.14.32.28.44.15.12.31.17.49.11.35-.12.64-.32.85-.62.6-.85,1.33-1.58,2.09-2.28.29-.26.52-.59.75-.9.23-.32.5-.59.87-.77.55-.26,1.02-.64,1.39-1.13.22-.29.5-.51.8-.69.27-.17.53-.37.82-.51.39-.19.73-.44,1.04-.73.24-.23.49-.41.83-.44.22-.02.4-.14.56-.29.1-.1.21-.19.31-.29.16-.16.36-.23.58-.23.43,0,.85.06,1.25.23.38.16.68.38.71.83,0,.1.16.18.24.16.12-.03.16-.12.18-.23,0-.04,0-.07.01-.11,0-.04.01-.07.02-.1.05-.15.16-.23.31-.25.66-.09,1.27.11,1.84.41.15.08.31.2.41.34.23.36.47.71.76,1.02.07.07.11.18.14.29.09.43.28.81.54,1.15.18.24.24.5.3.78.16.73.29,1.46.3,2.22,0,.33.1.63.25.92.11.22.24.44.34.67.27.62.51,1.25.69,1.9.21.78.67,1.4,1.3,1.91.14.11.38.14.49.02.45-.48.98-.65,1.63-.56.45.06.84-.36.75-.81-.12-.62-.07-1.29-.36-1.88-.16-.8-.36-1.6-.24-2.43.07-.5.07-.99-.08-1.48-.15-.48-.13-.99,0-1.48.16-.56.2-1.12.2-1.69,0-.54.02-1.07.22-1.58.05-.13.07-.28.09-.42.14-.96.64-1.72,1.34-2.36.26-.24.53-.47.82-.68.34-.25.67-.22.96.06.1.1.18.22.29.32.16.14.33.27.51.38.16.09.29.19.39.35.53.9,1.31,1.49,2.27,1.85.17.06.33.14.5.19.32.1.57.27.8.51.27.28.55.55.83.83.21.21.34.45.37.75.01.14.04.28.06.42.05.42-.08.65-.46.87-.36.2-.74.27-1.13.22-.56-.07-1.13-.15-1.65-.42-.29-.16-.59-.24-.91-.28-.4-.04-.69.19-.72.61-.02.32-.01.64-.02.96,0,.28.05.59-.03.85-.17.54-.06,1.04.07,1.57.15.62.4,1.22.41,1.87,0,.17.11.34.15.51.08.35.2.69.22,1.04.03.51.11.98.51,1.36.1.09.13.25.19.38.14.34.39.59.66.83.16.15.36.22.58.26.38.08.76.19,1.08.43.24.17.53.22.81.22.75,0,1.5,0,2.24,0,.25,0,.49-.05.71-.19.09-.06.18-.11.28-.16.4-.24.8-.45,1.27-.53.36-.06.66-.25.9-.53.28-.33.6-.61,1-.79.23-.11.4-.3.53-.51.22-.37.44-.73.62-1.11.07-.15.1-.35.08-.52-.05-.61-.04-1.21.04-1.81.08-.6-.21-1.04-.69-1.34-.3-.19-.61-.37-.87-.61-.27-.25-.48-.54-.51-.91-.03-.44-.17-.82-.41-1.19-.19-.3-.23-.67-.23-1.03,0-.41.12-.77.45-1.04.11-.09.21-.19.32-.28.22-.18.38-.41.49-.68.38-.86.8-.95,1.62-.87.83.08,1.58.39,2.31.77.38.2.74.41,1.17.49.26.05.46.24.52.49.14.58.47,1.03.86,1.45.27.29.33.65.17.99-.22.48-.22.96-.15,1.46.09.71.17,1.41.26,2.12.03.21.05.43.13.62.33.8.23,1.6.05,2.41-.04.17-.12.34-.12.52,0,.56-.36,1-.49,1.51-.04.16-.19.3-.32.41-.33.27-.67.52-1.02.78-.31.24-.59.5-.84.81-.63.77-1.36,1.46-2.14,2.09-.56.45-1.19.79-1.86,1.04-.54.2-1.05.44-1.46.86-.16.16-.37.22-.59.18-.5-.11-.99-.08-1.48.06-.17.05-.35.07-.53.06-.5-.02-.99,0-1.46.23-.12.06-.28.05-.42.05-.18,0-.36,0-.53,0-.43,0-.85,0-1.28,0-.44-.01-.78-.34-1.2-.42-.24-.05-.47-.21-.71-.22-.4-.02-.65-.23-.91-.49-.35-.36-.7-.71-1.07-1.04-.24-.21-.49-.41-.76-.59-.22-.15-.47-.2-.71-.07-.38.21-.76.37-1.2.42-.16.02-.32.14-.46.25-.14.1-.26.24-.39.37-.19.18-.4.31-.67.29-.26-.01-.5.04-.7.2-.26.21-.57.28-.89.32-.18.02-.35.06-.53.08-.43.05-.83.17-1.16.48-.19.18-.36.12-.54-.1-.07-.08-.11-.19-.18-.27-.12-.14-.29-.22-.47-.21-.28.03-.56.09-.84.13-.19.03-.46-.13-.51-.32-.16-.63-.43-1.2-.72-1.77-.05-.1-.08-.2-.14-.29-.6-.85-.96-1.82-1.4-2.76-.02-.03-.02-.07-.04-.1-.17-.27-.38-.53-.49-.82-.11-.29-.08-.64-.16-.94-.12-.44-.26-.89-.45-1.31-.37-.79-.5-1.63-.58-2.48-.04-.45-.17-.83-.47-1.15-.12-.13-.22-.28-.33-.42-.15-.18-.35-.27-.57-.2-.34.12-.68.19-1.04.23-.1.01-.22.04-.3.1-.47.31-.99.6-1.26,1.12-.17.34-.43.56-.73.75-.27.17-.55.32-.83.49-.77.47-1.42,1.07-1.83,1.9-.08.16-.18.31-.26.47-.38.73-.83,1.4-1.48,1.93-.3.24-.54.57-.77.88-.39.56-.86,1.04-1.36,1.5-.39.36-.78.73-1.23,1.16Z"/>
      <path d="m33.97,28.6c.15.5.27.94.41,1.38.06.2.15.4.25.58.12.23.3.38.57.44.31.07.61.21.93.24.52.05.94.29,1.35.59.2.15.42.27.64.39.42.22.85-.09.98-.38.03-.06.07-.13.08-.2.04-.53.34-.91.65-1.31.48-.61.94-1.25,1.31-1.94.19-.35.44-.65.75-.89.37-.28.67-.62.88-1.05.15-.31.4-.59.64-.85.29-.32.57-.63.75-1.03.15-.31.43-.46.76-.52q1.2-.22,2.34.35c.19.1.39.18.57.29.25.15.51.23.8.26.28.02.56.07.84.14.25.06.5.08.73-.05.53-.31,1.07-.31,1.65-.15.3.08.63.07.95.08.3.01.56.1.79.29.76.64,1.56,1.25,2.28,1.93.56.54,1.08,1.14,1.42,1.86.57,1.22,1.18,2.43,1.66,3.7.18.47.33.94.53,1.4.42.99.42,2,.25,3.04-.02.11-.05.21-.07.31-.16.73-.11.92-.85,1.39-.22.14-.35.35-.46.58-.15.32-.31.64-.48.95-.22.42-.53.75-1,.91-.2.07-.39.17-.58.27-.59.32-1.18.63-1.87.72-.56.08-1.05.43-1.57.67-.16.07-.31.22-.47.24-.69.09-1.25.48-1.85.79-.43.22-.86.33-1.34.29-.54-.04-1.06.03-1.58.19-.54.17-1.1.3-1.65.41-.57.11-1.13.13-1.65-.22-.27-.18-.58-.27-.9-.32-.18-.03-.37-.04-.52-.12-.85-.52-1.85-.73-2.71-1.23-.56-.32-.94-.76-1.13-1.35-.23-.68-.5-1.33-.86-1.87-.07-.71-.12-1.35-.2-1.98-.08-.65-.05-1.28.15-1.9.04-.13.07-.28.07-.42,0-.1-.06-.19-.09-.3-.34.06-.65.12-.96.16-.29.04-.56.12-.81.26-.35.2-.72.3-1.11.34-.11.01-.21.04-.32.04-.43.02-.84.25-1.26.15-.38-.09-.74-.25-1.1-.39-.27-.11-.54-.16-.83-.15-.18,0-.36,0-.53-.02-.14-.02-.26-.1-.32-.25-.03-.07-.06-.13-.06-.2-.02-.33-.18-.61-.37-.87-.25-.35-.49-.7-.72-1.06-.33-.51-.65-1.01-1.16-1.37-.31-.22-.57-.54-.79-.86-.4-.58-1.51-.52-1.92.17-.13.21-.24.44-.34.66-.31.66-.75,1.2-1.38,1.59-.09.05-.17.14-.26.19-.55.34-1.02.77-1.43,1.27-.21.25-.47.44-.81.46-.31.02-.53.19-.73.4-.25.27-.53.46-.92.47-.34,0-.63.21-.79.49-.39.7-1.05,1.04-1.71,1.38-1.01.51-1.01.48-2.13.52-.69.02-1.34-.19-2.01-.25-.09,0-.2-.09-.27-.16-.18-.22-.35-.45-.52-.67-.26-.34-.51-.68-.76-1.03-.1-.14-.2-.29-.27-.45-.25-.51-.5-1.02-.72-1.54-.19-.43-.29-.88-.34-1.34-.06-.58-.37-1.07-.62-1.57-.09-.18-.27-.33-.42-.47-.17-.16-.53-.14-.69.03-.17.18-.33.38-.45.59-.24.4-.47.8-.66,1.22-.16.33-.35.63-.65.83-.4.28-.52.65-.5,1.11.02.51-.08.99-.35,1.43-.3.5-.43,1.05-.43,1.63,0,.47-.24.81-.58,1.09-.33.27-.69.51-1.04.75-.15.1-.32.16-.49.21-.17.05-.35.06-.52.11-.48.16-.91.03-1.32-.22-.03-.02-.06-.04-.09-.06-.89-.58-1.17-.97-1.44-2.02-.21-.8-.22-1.63-.13-2.44.06-.53.31-1.02.68-1.42.32-.34.65-.65.99-.97.15-.15.32-.29.49-.41.3-.23.46-.54.54-.9,0-.03.02-.07.03-.1.08-.54.29-1.02.68-1.42.6-1.01,1.38-1.9,2.01-2.89.33-.51.76-.94,1.32-1.21.42-.2.79-.48,1.12-.8.39-.37.78-.73,1.15-1.11.3-.3.61-.48,1.05-.35.1.03.21.06.31.05.8-.06,1.42.36,2.07.73.29.17.5.4.63.7.27.58.53,1.17.78,1.75.06.13.1.27.12.41.06.39.17.76.3,1.13.11.3.15.62.21.93.04.24.03.5.08.74.07.35-.03.74.18,1.04.28.41.62.78.96,1.14.15.17.38.21.59.12.59-.24,1.19-.47,1.65-.95.67-.69,1.41-1.31,2.21-1.85.63-.43,1.14-.96,1.42-1.69.08-.2.2-.38.31-.56.16-.25.36-.44.69-.43.26,0,.48-.11.68-.27.19-.15.37-.33.56-.5.47-.44.93-.87,1.39-1.32.31-.3.6-.61.9-.91.13-.13.29-.2.48-.19.82.02,1.63.03,2.44.22.29.07.53.18.7.44.1.15.21.29.31.43.3.45.64.85,1.05,1.2.36.31.63.66.8,1.11.21.57.63.93,1.24,1.07.24.06.48.14.79.24Zm12.43,11.29c.62.08,1.25-.15,1.89-.36.23-.08.48-.11.72-.17.24-.06.48-.12.72-.19.2-.06.4-.16.61-.18.65-.07,1.23-.34,1.81-.61.7-.32,1.22-.86,1.7-1.42.23-.26.38-.6.54-.91.06-.12.09-.27.1-.41.12-1.25.07-1.46-.49-2.55-.61-1.17-1.46-2.08-2.71-2.6-.38-.16-.74-.24-1.13-.13-.38.11-.76.21-1.15.19-.48-.02-.81.22-1.05.6-.11.18-.2.37-.31.56-.1.18-.2.37-.31.55-.24.39-.65.54-1.02.75-.23.13-.46.18-.71.14-.25-.04-.49-.08-.74-.11-.32-.04-.55.11-.72.37-.02.03-.04.06-.05.09-.25.55-.51,1.1-.74,1.66-.19.46-.33.94-.26,1.45.03.21-.02.42-.04.64-.09,1.04-.07,1.09.65,1.78.23.22.48.41.81.49.17.04.33.14.47.24.28.21.58.24.91.21.14-.02.28-.04.5-.07Z"/>
      <path d="m63.08,26.6c.03-.57.03-1.14.08-1.71.04-.41.25-.74.59-.97.21-.15.44-.23.7-.21.39.03.78.07,1.17.09.51.02.88.26,1.13.7.19.34.38.69.54,1.04.18.38.4.77.48,1.18.07.37-.02.78-.03,1.17-.01.46,0,.93-.01,1.39,0,.43.02.85.23,1.24.08.15.12.34.13.51.03.4.18.76.33,1.12.05.13.13.26.21.37.42.56.97.68,1.61.46.14-.05.25-.14.3-.28.39-1.2,1.03-2.26,1.8-3.24.38-.48.81-.89,1.3-1.26.37-.28.74-.55,1.09-.86.23-.21.48-.29.78-.27.14,0,.28,0,.43,0,.32.01.68-.08.94.1.38.26.88.32,1.16.73.04.06.1.1.15.15.21.18.59.15.78-.05.05-.05.1-.1.14-.16.41-.67.79-1.35.93-2.14.02-.1.05-.21.07-.31.08-.37.25-.66.63-.79.48-.16.68-.6.95-.98.26-.77.81-1.33,1.41-1.84.41-.35.7-.81,1.01-1.24.36-.49.81-.89,1.19-1.36.16-.2.38-.32.63-.37.17-.03.35-.07.52-.13.7-.3,1.39-.2,2.09.01.2.06.4.14.6.23.32.15.69.25.95.47.32.27.55.65.82.98.02.03.04.06.06.09.23.52.52,1.02.66,1.57.13.48.44.9.46,1.41,0,.11.02.21.06.31.15.41.2.82.12,1.26-.03.17-.03.36,0,.53.12.6.1,1.21.07,1.81-.03.58,0,1.14.14,1.7.12.46.15.91.06,1.37.1.85-.34,1.41-.98,1.87-.18.13-.36.24-.58.23-.48-.03-.9.13-1.32.35-.64.32-1.32.53-2.05.47-.47-.04-.92.09-1.36.22-.28.08-.51.25-.73.44-.23.2-.49.3-.78.28-.54-.04-.96.23-1.38.5-.35.23-.54.56-.53.99.01.64.02,1.28.03,1.92,0,.18.09.34.2.49.25.34.53.67.75,1.03.45.72,1.11,1.19,1.81,1.62.22.13.46.19.71.2.18,0,.36,0,.53.01.29,0,.57.06.81.22.31.2.65.29,1.01.28.33-.01.63.09.94.18.46.14.9.09,1.35-.11.55-.25,1.1-.51,1.6-.84.21-.14.42-.29.65-.36.43-.14.75-.41,1-.76.17-.24.38-.41.65-.53.2-.08.4-.16.57-.28.42-.31.8-.2,1.18.05.15.1.29.22.4.35.35.4.74.78,1.01,1.24.25.43.12.98.19,1.47.07.46.12.92.17,1.38.04.35.07.71.08,1.06,0,.22-.1.41-.29.54-.24.15-.49.29-.73.45-.27.18-.55.3-.87.37-.34.08-.67.23-.99.38-.3.14-.59.22-.92.07-.16-.07-.34-.1-.51-.14-.5-.12-.98-.1-1.44.18-.48.29-1.01.34-1.55.23-.64-.14-1.27-.12-1.91.02-.75.16-1.49.04-2.2-.23-.2-.08-.4-.15-.59-.24-.56-.26-1.13-.41-1.76-.33-.41.05-.78-.07-1.11-.29-.27-.18-.53-.36-.78-.55-.2-.15-.37-.34-.58-.47-.37-.22-.7-.49-.96-.84-.04-.06-.09-.12-.15-.15-.62-.37-.87-1.01-1.16-1.62-.17-.35-.34-.71-.48-1.07-.24-.65-.59-1.21-1.09-1.69-.13-.12-.22-.27-.27-.45-.2-.9-.42-1.8-.61-2.7-.05-.24-.04-.5-.06-.74-.03-.47-.28-.8-.68-1.02-.22-.12-.46-.19-.7-.27-.14-.04-.29,0-.4.1-.63.62-1.32,1.19-1.74,2.01-.18.35-.34.7-.42,1.09-.07.32-.19.61-.43.84-.57.57-.89,1.28-1.11,2.04-.07.26-.2.45-.43.58-.21.13-.43.26-.64.38-.12.07-.26.15-.39.15-.51,0-.86.22-1.16.63-.17.23-.5.27-.79.17-.27-.09-.54-.2-.79-.32-.33-.16-.58-.41-.74-.74-.05-.1-.09-.2-.12-.3-.23-.76-.64-1.42-1.06-2.09-.16-.25-.27-.5-.24-.8.03-.38-.13-.68-.34-.98-.55-.75-.95-1.59-1.27-2.46-.09-.23-.16-.47-.19-.72-.18-1.41-.41-2.82-.5-4.24,0-.07,0-.14-.01-.21-.06-.38-.23-.74-.2-1.15.03-.39,0-.78,0-1.17-.01,0-.02,0-.03,0Z"/>
      <path d="m354.89,77.89c-.03-.42.01-.84.2-1.24.01-.03.03-.07.04-.1.06-.73.44-1.34.77-1.97.18-.35.33-.72.38-1.11.07-.54.24-1.05.48-1.52.37-.74.57-1.53.69-2.34.07-.47.2-.91.44-1.31.18-.31.31-.64.37-.99.04-.24.15-.48.18-.72.06-.44.24-.81.51-1.16.11-.14.22-.3.25-.46.11-.69.47-1.26.85-1.82.1-.14.21-.31.21-.47.02-.65.37-1.14.71-1.63.06-.09.13-.17.21-.24.18-.19.3-.42.28-.67-.04-.49.15-.9.34-1.33.32-.71.64-1.42.97-2.14.06-.13.11-.27.19-.38.34-.46.63-.95.62-1.55.34-.68.38-1.44.63-2.15.05-.13.05-.28.06-.42.01-.14-.21-.34-.36-.32-.11,0-.22,0-.32.04-.83.31-1.71.47-2.51.87-.12.06-.27.09-.41.1-.64.03-1.28.05-1.92.07-.32,0-.62-.08-.92-.23-.47-.24-.95-.48-1.5-.51-.12,0-.24-.14-.34-.24-.07-.07-.14-.17-.17-.27-.1-.26-.14-.56-.29-.79-.13-.2-.39-.3-.57-.47-.1-.09-.18-.22-.24-.35-.3-.57-.65-1.1-1-1.64-.33-.5-.6-1.04-.78-1.63-.15-.51-.29-1.02-.54-1.5-.31-.57-.42-1.2-.6-1.82-.09-.31-.09-.63-.08-.95,0-.23-.1-.41-.27-.55-.11-.09-.22-.18-.32-.28-.1-.11-.15-.27-.08-.39.22-.4.19-.81.2-1.24.02-.49.14-.98.25-1.47.09-.42.23-.82.35-1.23.13-.4.37-.6.77-.62.18,0,.36,0,.53-.01.86-.06,1.4.42,1.81,1.1.11.19.17.4.13.61-.12.59.07,1.13.23,1.67.04.14.11.26.15.4.22.75.51,1.48.46,2.28-.02.32.08.62.26.91.24.39.44.81.67,1.21.21.37.46.72.79,1,.44.37.72.88,1.08,1.32.13.16.16.39.26.58.08.16.23.28.41.32.42.09.83.17,1.25.24.32.05.64,0,.94-.14,1.09-.53,2.17-1.06,3.08-1.88.1-.09.21-.19.28-.31.32-.51.6-1.05.7-1.66.05-.29.15-.54.27-.8.17-.35.33-.72.41-1.09.14-.63.4-1.21.69-1.78.19-.38.4-.75.41-1.2,0-.26.16-.46.36-.63.38-.34.83-.54,1.27-.78.22-.12.49-.12.73-.03,1.02.37,1.96.83,2.55,1.81.53.88.55.87.32,1.89-.05.21-.08.42-.09.63-.03.57-.1,1.12-.35,1.65-.2.41-.28.88-.23,1.35.03.32.05.64.06.96,0,.14-.02.29-.08.41-.37.77-.55,1.61-.98,2.36-.09.16-.11.34-.07.52.04.17.08.35.1.52.06.47,0,.89-.29,1.31-.34.49-.54,1.07-.81,1.62-.2.41-.43.81-.44,1.3,0,.2-.13.4-.22.6-.26.58-.51,1.18-.81,1.74-.33.6-.51,1.25-.66,1.91-.07.32-.18.61-.34.89-.17.31-.36.6-.44.96-.08.38-.32.71-.63.97-.2.17-.32.37-.4.62-.22.64-.45,1.27-.5,1.96-.03.47-.21.9-.44,1.3-.19.34-.42.66-.49,1.06-.03.13-.12.26-.2.37-.54.79-.77,1.68-.85,2.6-.06.65-.36,1.23-.41,1.87,0,.09-.11.18-.16.27-.22.39-.23.63.09.83.58.37.77.89.8,1.53.03.67.1,1.35.15,2.02.02.26-.04.53-.22.69-.5.46-.68,1.07-.87,1.69-.11.38-.24.74-.56,1-.24.19-.3.47-.33.76-.04.41-.31.63-.68.72-.31.07-.63.1-.95.12-.14,0-.28-.07-.34-.22-.03-.07-.04-.14-.07-.2-.17-.38-.37-.45-.76-.25-.54.27-1.07.55-1.61.82-.42.21-.85.36-1.32.42-.26.03-.49-.03-.7-.2-.18-.14-.3-.31-.31-.54-.01-.21-.02-.43,0-.64.01-.29-.02-.57-.14-.83-.21-.43-.23-.89-.21-1.37Zm15.27-34.56s-.02-.08-.04-.08c-.08-.02-.13.02-.13.1,0,.03.02.07.05.08.08.02.12-.01.12-.1Z"/>
      <path d="m344.43,23.6c.09.15.19.33.31.51.12.18.26.34.37.52.2.31.46.53.77.72.4.24.77.5,1.12.82.21.19.45.36.7.47.69.31,1.3.72,1.8,1.3.2.23.45.34.76.32.07,0,.14-.01.21,0,.37,0,.6.23.73.53.08.19.1.41.13.62.02.18-.06.34-.18.48-.28.32-.61.47-1.03.44-.43-.02-.85-.04-1.26-.2-.7-.27-1.42-.47-2.17-.55-.25-.03-.51-.07-.7-.24-.5-.44-1.14-.57-1.73-.79-.3-.11-.6-.2-.9-.32-.46-.18-.95-.3-1.43-.42-.25-.06-.5.15-.52.4-.02.32-.01.64.1.95.06.17.14.34.15.51.07.68.27,1.32.41,1.98.13.59.25,1.18.43,1.76.08.24.1.49.14.73.04.25.04.5.11.74.23.8.26,1.61.27,2.43,0,.57.02,1.14.26,1.68.04.1.07.21.07.31.04.89.18,1.77.08,2.66-.05.46-.06.92-.08,1.39-.01.36.02.72.2,1.04.17.33.21.68.2,1.04,0,.36.08.7.17,1.04.16.65.37,1.31.2,1.99-.03.14-.08.28-.15.39-.16.25-.38.43-.7.43-.11,0-.21,0-.32,0-.22,0-.42.05-.59.2-.38.34-.82.41-1.3.29-.49-.13-.99-.1-1.49-.05-.34.03-.62-.1-.84-.37-.26-.34-.49-.7-.66-1.09-.21-.48-.27-.95,0-1.44.12-.21.21-.46.23-.71.05-.57.11-1.13.37-1.65.07-.15.07-.35.07-.52.01-.28.01-.57.02-.85,0-.96,0-1.92.02-2.88.04-1.54-.17-3.05-.54-4.54-.18-.72-.26-1.47-.5-2.18-.1-.29-.07-.63-.09-.95-.02-.43-.05-.85-.17-1.27-.15-.48-.22-.97-.21-1.48.02-.73-.23-1.4-.48-2.06-.22-.58-.68-.9-1.28-1-.28-.04-.57-.05-.85-.08-.5-.05-.99-.12-1.43-.4-.22-.14-.46-.18-.71-.19-.5,0-1-.03-1.49-.06-.71-.04-1.42-.02-2.13.12-.52.11-1.05.18-1.58.27-.21.03-.42.05-.64.05-.29,0-.57-.07-.78-.29-.27-.29-.59-.51-.94-.7-.16-.08-.29-.21-.43-.32-.37-.27-.55-.62-.52-1.1.04-.5,0-1,0-1.49,0-.23.09-.45.32-.5.73-.17,1.27-.62,1.79-1.12.16-.15.35-.24.58-.24.18,0,.36,0,.53-.01.33-.02.64.03.92.2.34.2.73.26,1.12.31,1.31.19,2.63.19,3.94.17.5,0,1,.02,1.49.02.25,0,.45-.25.42-.51-.01-.1,0-.23-.07-.31-.28-.37-.27-.8-.33-1.22-.04-.28-.05-.57-.06-.85-.01-.36-.04-.71-.15-1.05-.06-.2-.1-.42-.09-.63.01-.45-.13-.83-.35-1.21-.29-.5-.46-1.04-.43-1.63.02-.4-.13-.76-.33-1.11-.94-1.57-1.54-3.04-1.98-4.81-.02-.07-.05-.14-.05-.21-.03-.82-.41-1.51-.85-2.16-.63-.94-.94-1.99-1.19-3.06-.07-.3-.05-.64,0-.95.02-.2.11-.43.25-.58.31-.34.64-.67,1.04-.91.32-.18.64-.26,1.01-.09.25.11.55.16.83.18.35.02.61.17.82.43.4.5.78,1.01,1.2,1.55.11.74.31,1.49.66,2.2.15.31.24.68.28,1.03.12,1.05.57,1.98,1,2.91.13.3.27.58.28.91,0,.7.22,1.33.64,1.89.23.3.32.63.29,1-.02.21-.03.43-.03.64,0,.18.03.37.16.5.47.49.49,1.17.77,1.74.05.09.05.21.05.31,0,.69.18,1.34.38,1.98.04.14.11.27.11.41,0,.63.27,1.17.55,1.71.17.32.33.62.33,1,0,.17.04.36.13.51.19.33.2.67.16,1.03-.01.1,0,.21.03.32.04.18.14.34.32.4.81.28,1.58.64,2.36,1,.38.18.75.19,1.12-.04.12-.08.24-.15.44-.09Z"/>
      <path d="m303.83,41.06c-.13.15-.26.27-.35.41-.32.49-.78.82-1.29,1.09-.51.26-1,.53-1.51.79-.16.08-.33.14-.5.16-.7.07-1.29.35-1.84.78-.6.46-1.31.71-2.02.96-.24.09-.49.11-.73.01-.33-.14-.67-.21-1.03-.23-.56-.03-1.01-.33-1.4-.7-.18-.17-.32-.39-.51-.55-.37-.29-.52-.66-.53-1.11,0-.21-.04-.43-.13-.62-.15-.34-.17-.68-.15-1.04.02-.21.02-.44-.05-.63-.37-1-.62-2.04-.99-3.04-.21-.56-.63-.94-1.03-1.34-.09-.09-.27-.11-.4-.1-.28.02-.56.09-.79.29-.35.3-.68.6-.89,1.04-.26.54-.62,1.03-.95,1.54-.14.21-.25.42-.33.67-.27.85-.42,1.73-.63,2.59-.07.27-.05.57-.07.85,0,.21-.01.43,0,.64.02.41-.09.76-.3,1.11-.24.4-.44.81-.64,1.23-.08.16-.13.33-.18.5-.04.14-.05.28-.08.42-.1.41-.21.83-.31,1.24-.38.47-.75.94-1.15,1.41-.15.17-.36.24-.58.2-.49-.08-.98-.19-1.46-.29-.25-.05-.46-.19-.64-.36-.29-.27-.49-.61-.67-.96-.06-.12-.1-.27-.1-.41,0-.53-.03-1.07.25-1.56.13-.22.18-.46.24-.7.08-.35.18-.69.3-1.02.27-.73.56-1.46.86-2.18.11-.27.19-.54.19-.83.03-.89.24-1.76.27-2.65.03-.75.26-1.47.59-2.15.35-.7.71-1.39,1.05-2.09.21-.42.46-.8.78-1.14.19-.21.37-.43.55-.65.39-.46.84-.87,1.35-1.21.33-.22.64-.45.96-.68.24-.17.49-.29.78-.31.43-.03.84-.14,1.24-.29.21-.08.42-.05.63.03.03.01.07.03.1.04.57.33,1.16.53,1.83.45.22-.02.41.07.58.23.6.56,1.16,1.15,1.52,1.91.12.26.29.49.42.74.2.38.43.73.75,1.02.33.29.55.65.64,1.09.1.5.35.92.71,1.29.25.25.46.54.67.83.29.38.65.65,1.07.87.4.21.79.28,1.23.13.43-.15.91-.17,1.31-.44.11-.08.26-.1.4-.12.91-.15,1.67-.57,2.32-1.21.21-.2.43-.38.7-.48.55-.21.94-.62,1.32-1.06.14-.17.23-.35.28-.56.1-.38.21-.75.35-1.12.13-.33.27-.65.34-1.01.08-.42.31-.79.46-1.19.16-.45.58-.73,1.06-.81.56-.09,1.13-.15,1.66.18.18.12.41.13.62.11.39-.03.78-.07,1.17-.1.23-.02.42.05.58.21.13.12.26.25.36.39.18.27.38.51.7.62.09.03.17.12.25.2.16.16.28.36.21.58-.32.97-.2,1.98-.29,2.97-.03.32.02.64.21.92.18.28.24.59.24.92,0,.29.08.56.19.83.31.76.68,1.49.95,2.26.03.08.15.15.25.18.1.03.22.03.31,0,.5-.15.82.08,1.08.47.08.12.17.23.27.33.34.35.48.77.5,1.25.04.93-.11,1.85-.25,2.76-.03.21-.16.39-.31.55-.21.24-.42.48-.6.75-.21.31-.45.55-.84.6-.07,0-.14.03-.2.06-.58.36-1.18.49-1.82.15-.35-.02-.71-.08-1.06-.06-.43.01-.74-.15-1.04-.45-.36-.36-.64-.75-.74-1.27-.09-.45-.34-.86-.33-1.34,0-.13-.07-.27-.12-.4-.02-.07-.08-.12-.1-.19-.1-.56-.25-1.1-.66-1.53-.07-.07-.09-.19-.1-.3-.04-.21-.08-.42-.08-.64,0-.69-.3-1.23-.78-1.69-.15-.15-.29-.32-.43-.47-.21-.21-.4-.23-.66-.05-.15.1-.27.24-.43.31-.41.17-.74.43-.96.81-.17.28-.42.36-.72.36-.28,0-.57.03-.86.05Z"/>
      <path d="m315.43,12.45c-.05.1-.08.21-.15.28-.33.28-.42.64-.42,1.05,0,.18.02.35.1.52.09.19.18.39.27.58.12.27.14.55.11.83-.05.51-.37.83-.81,1.04-.12.05-.28.06-.41.03-.24-.05-.49-.12-.7-.24-.54-.31-1.12-.45-1.72-.52-.18-.02-.35-.04-.53-.07-.71-.14-1.36-.36-1.89-.89-.35-.35-.78-.61-1.18-.91-.21-.15-.38-.33-.43-.59-.06-.29-.32-.48-.36-.76-.06-.38-.06-.78-.08-1.17-.02-.5-.02-.99-.02-1.49,0-.26.09-.49.28-.67.08-.07.16-.15.22-.23.38-.56.96-.69,1.57-.76.17-.02.35.02.52.07.73.19,1.46.28,2.21.14.49-.09.91.05,1.27.39.13.12.27.24.36.39.17.26.41.38.7.45.07.02.14.03.2.07.28.18.5.4.46.77-.01.14-.04.28-.04.42,0,.36.04.71.34.97.07.07.1.18.15.29Z"/>
      <path class="cls-1" d="m370.16,43.33c0,.08-.05.12-.12.1-.02,0-.05-.05-.05-.08,0-.08.05-.12.13-.1.02,0,.03.06.04.08Z"/>
    </g>
  </g>
</svg>