<?xml version="1.0" encoding="UTF-8"?>
<svg xmlns="http://www.w3.org/2000/svg" version="1.1" viewBox="0 0 1080 1350">
  <defs>
    <style>
      .cls-1 {
        fill: #2756a3;
      }
    </style>
  </defs>
  <!-- Generator: Adobe Illustrator 28.7.1, SVG Export Plug-In . SVG Version: 1.2.0 Build 142)  -->
  <g>
    <g id="Capa_1">
      <g>
        <path class="cls-1" d="M1080,764.9c-1.4,2.4-1.7,5.3-2.5,7.9-1.9,5.9-3.6,11.9-5.3,17.9-.5,1.8-1.4,2.4-3.2,2.4-12.9,0-25.7.1-38.6.2-33.8.1-67.6,0-101.4-.2-1.1,0-2.6.7-3.2-.8-.6-1.5-.2-3,1-4.3,3.2-3.3,6.8-6.1,9.9-9.5,2.5-2.8,3.8-5.7,3.8-9.6-.2-58.5-.1-116.9-.2-175.4,0-5.1-.3-10.1-.3-15.2,0-2-.6-3.8-1.9-5.4-3.2-4.1-6.4-8.3-9.6-12.5-.6-.7-1.1-1.5-1.5-2.3-1.4-2.5-.6-3.9,2.2-3.9,12.9,0,25.9-.2,38.8-.2,32.3,0,64.7-.1,97,.2,4.9,0,4.9.1,6.1,4.8,1.6,6.5,3,13.1,4.6,19.6.4,1.6-.2,2-1.6,1.9-5.6-.5-11-1.9-16.5-3.1-5.1-1.2-10.2-2.4-15.4-3.6-1.2-.3-2.5-.4-3.7-.4-18.8,0-37.5,0-56.3,0-1.7,0-2,.5-2,2.1.2,28.3.3,56.6.3,84.9,0,1.7.5,2,2.1,2,12,0,24,.2,36.1.3,1.1,0,2-.2,3-.6,4.3-1.8,8.6-3.8,13.1-5.1,4-1.1,4.2-1,4.3,3.1,0,11.6.1,23.2.3,34.8,0,2-.6,2.3-2.3,2.2-1.3-.1-2.5-.5-3.6-1-1.5-.8-3.1-1.4-4.4-2.4-4.7-3.6-9.9-4.5-15.7-4.3-10.3.4-20.7.1-31,0-1.5,0-2.1.2-2.1,2,0,26.9,0,53.8,0,80.7,0,1.5.2,2,1.9,2,13.3-.4,26.6-.2,39.8-1.1,14.9-1,29.7-3.1,44.3-6.4,3.7-.8,7.2-2.5,10.9-3.1,1-.2,2.1-.4,3,.2v1.3Z"/>
        <path class="cls-1" d="M.2,789.8c2.3-3.4,5.6-5.6,8.4-8.4,2.5-2.4,4.8-4.9,6.3-8.1.4-.9.7-1.8.7-2.8,0-60.9.1-121.8-.3-182.8,0-2.3-.3-4.6-.2-6.9.2-3.2-1-5.7-2.8-8.1-3-3.9-6.1-7.9-9.1-11.9-.4-.6-.8-1.1-1.2-1.7-.7-1.2-1.7-2.4-.9-3.9.7-1.4,2.2-.9,3.4-.9,20.4-.2,40.8-.2,61.2,0,1.2,0,2.7-.5,3.4,1,.8,1.6-.2,2.9-1,4-3.4,4.7-7.3,8.9-10.6,13.6-1.7,2.4-2.4,4.8-2.4,7.7-.5,14.6-.4,29.2-.4,43.8,0,49,0,98.1,0,147.1,0,2.1.6,2.5,2.5,2.4,11.6-.2,23.2.5,34.8-.6,18.3-1.6,36.3-4.5,53.5-11.5,2.4-1,4.9-1.8,7.5-2.1,1.3-.1,1.8.2,1.4,1.6-2.5,10.2-5,20.4-7.5,30.6-.4,1.5-1.3,1.2-2.2,1.2-12.3,0-24.6,0-36.9,0-34.5,0-69,0-103.5,0-1.3,0-2.7.2-3.9-.4v-3Z"/>
        <path class="cls-1" d="M262.6,797c2.4-.8,4.8-.6,7.2,0h-7.2Z"/>
        <path class="cls-1" d="M271,797c1.1-.8,2.3-.3,3.4-.4,0,.1,0,.2,0,.4h-3.4Z"/>
        <path class="cls-1" d="M682.1,732c1.3-3.7,2.4-6.8,3.5-10,18.3-53.8,36.2-107.8,54.8-161.5,2.3-6.5.5-5.6,8.3-6.1,5.7-.3,11.4-.1,17,.4,1.6.2,2.2.9,2.7,2.4,5.7,18.9,10.8,38,16.2,57,10.7,37.7,21.3,75.5,31.9,113.3.4,1.4.8,2.8,1.2,4.4,1.3-.6,1.4-1.7,1.7-2.7,8.3-25.7,16.6-51.5,24.8-77.2,7.5-23.4,15-46.8,22.5-70.2.1-.3.1-.7.3-1,2.4-5,.8-8.9-3.1-12.3-2.9-2.6-5.7-5.5-8.5-8.2-1.2-1.2-2-2.5-2-4.3,0-1.1.2-1.5,1.4-1.5,2.4,0,4.8,0,7.2,0,15.1,0,30.2,0,45.3,0,1,0,2.4-.8,2.9.7.6,1.7.4,3.5-1.2,4.8-4.5,3.5-8.1,7.8-12.1,11.7-4,3.9-6.4,8.5-8.1,13.8-12.7,38.7-25.6,77.4-38.4,116.1-9.9,30.1-19.9,60.1-29.8,90.2-.5,1.5-1.1,1.9-2.6,1.9-6.3,0-12.5.1-18.8.1-3.5,0-3.5,0-4.5-3.4-8.9-30.3-17.7-60.6-26.6-91-7.9-27-15.7-53.9-23.6-80.9-.3-1.1-.5-2.3-1.5-3.4-3.2,9.4-6.4,18.5-9.5,27.7-16.7,49.6-33.4,99.3-50.1,148.9-.4,1.3-.9,1.9-2.4,1.9-7,.3-14,.5-21.1,0-1.4,0-2-.5-2.4-1.9-6.4-23.2-12.9-46.3-19.3-69.5-12.9-46.6-25.9-93.1-38.7-139.7-1.5-5.4-3.9-10.2-7.8-14.2-2.5-2.6-4.9-5.4-7.3-8.1-.3-.4-.7-.7-1-1.1-.8-1.3-1.1-2.9-.5-4.3.4-1,1.9-.4,2.9-.4,21.7,0,43.4.2,65.2.3,2,0,2.6,1,1.8,2.9-.6,1.4-1.7,2.6-2.7,3.7-2.7,3-5.4,6-8.1,8.9-2,2.1-2.5,4.4-1.8,7.3,7.3,28.4,15.2,56.6,22.8,84.8,5.9,22,11.9,44,17.9,65.9.3,1,.7,1.9,1.2,3.5Z"/>
        <path class="cls-1" d="M488.5,793.2c-22.1,0-44.1,0-66.2,0-2,0-3.9-.1-5.9-.3-1.8-.2-2.4-1.3-1.5-2.9,1.1-1.9,2.8-3.4,4.3-4.9,3.6-3.5,7.4-6.8,9.8-11.2.6-1,.8-2,.8-3.2-.1-60.6-.2-121.3-.3-181.9,0-3.4-.3-6.9-.3-10.3,0-1.9-.7-3.5-1.8-5-3.5-4.5-6.9-9-10.4-13.5-.5-.6-.9-1.3-1.3-1.9-1.4-2.5-.7-3.7,2.1-3.7,46.1,0,92.2.2,138.3.2,2.1,0,3,.5,3.5,2.7,1.6,6.8,3.2,13.6,4.6,20.5.5,2.7.1,3.1-2.6,2.8-5.8-.6-11.4-2.1-17.1-3.4-4.9-1.1-9.7-2.3-14.5-3.4-.7-.2-1.4-.2-2.1-.2-18.8,0-37.7,0-56.5,0-1.6,0-2,.4-2,2,0,28.5,0,56.9,0,85.4,0,1.5.3,2,1.9,2,12.2,0,24.5,0,36.7,0,1.1,0,2.1-.3,3-.7,4.1-1.8,8.1-3.8,12.4-5.1,3.9-1.1,4.2-.9,4.2,3,0,11.7.1,23.5.3,35.2,0,1.7-.5,2-2,1.9-2-.1-3.6-1.1-5.3-1.9-.9-.5-1.9-.9-2.7-1.6-4.6-3.6-9.7-4.5-15.5-4.3-10.4.4-20.8.1-31.2,0-1.5,0-2.1.2-2.1,2,0,26.8,0,53.7,0,80.5,0,1.7.6,2,2.1,2,13.5,0,27,.1,40.5-1,14.5-1.2,28.9-2.9,43.1-6.3,3.7-.9,7.3-2.5,11.1-3.2,2.6-.5,3.1,0,2.4,2.5-2.2,8.6-4.4,17.1-7,25.5-.5,1.5-1.2,2-2.8,2-23.3,0-46.7,0-70,0,0,0,0-.2,0-.3Z"/>
        <g>
          <path class="cls-1" d="M390.8,643.7c-10.7-44.8-45.6-82.5-95.8-90.6-2.2-.4-4.5-.1-6.7-1.1h-4.2c-.8.7-1.7.6-2.5,0h-9.7c-1.1.5-2.2.7-3.4,0h-2.5c-.3.8-1,.4-1.5.4-10.9,1.2-21.4,3.6-31.5,7.8-23.3,9.8-42,25.4-56.4,45.9-21.3,30.3-29.4,63.5-20.8,100.2,11.1,47.1,52.5,83.1,95.9,89,2.9.4,5.9.4,8.7,1.6h2.1c2.4-.4,4.8-.4,7.2,0h1.3c1.1-.5,2.3,0,3.4-.4,2.5-.2,5.1-.3,7.6-.5,11.2-.9,22.1-2.6,32.5-7.1,7.3-3.2,14.4-6.9,21.2-11.1,44.1-27.7,67.1-83.6,55.1-134.2ZM354.6,687c-1.1,24.3-8.8,46.3-23.4,65.7-5,6.7-11,12.4-17.3,17.8-2.3,2-5.2,2.5-8,2.7-17.8,1.7-35.3.3-52-6.5-28-11.4-46-32.3-55.4-60.7-4.1-12.3-6.1-25.1-5.9-35.9,0-19.5,2.5-36.4,9.6-52.4,6.2-14,15.2-26,27.1-35.7,2.1-1.7,4.4-2.9,7.1-3.3,12.6-1.9,25.3-2.5,37.8-.3,34.7,6.3,58.5,26.3,72.1,58.5,6.7,16,9,32.8,8.2,50.1Z"/>
          <path class="cls-1" d="M271.9,552h-3.4c1.1.4,2.2.4,3.4,0Z"/>
          <path class="cls-1" d="M284.1,552h-2.5c.8.3,1.7.3,2.5,0Z"/>
        </g>
      </g>
    </g>
  </g>
</svg>