<?xml version="1.0" encoding="UTF-8"?>
<svg id="Capa_2" xmlns="http://www.w3.org/2000/svg" viewBox="0 0 155.39 60.69">
  <defs>
    <style>
      .cls-1 {
        fill: #fff;
      }
    </style>
  </defs>
  <g id="Capa_1-2" data-name="Capa_1">
    <g>
      <path class="cls-1" d="M78.59,12.23h-3.56v-3.98h3.56v-1.68c0-3.81,2.39-6.58,7.25-6.58,1.05,0,2.14.13,3.14.17v4.44c-.71-.08-1.42-.13-2.18-.13-1.59,0-2.26.67-2.26,2.47v1.3h4.1v3.98h-4.1v17.67h-5.95V12.23ZM98.19,4.9h-5.95V0h5.95v4.9ZM92.24,8.25h5.95v21.65h-5.95V8.25Z"/>
      <path class="cls-1" d="M116.36,15.87c-.38-2.43-1.93-3.73-4.4-3.73-3.81,0-5.07,3.85-5.07,7.04s1.21,6.83,4.94,6.83c2.76,0,4.36-1.76,4.73-4.4h5.74c-.75,5.74-4.73,8.88-10.43,8.88-6.53,0-10.93-4.61-10.93-11.1s4.02-11.73,11.06-11.73c5.11,0,9.8,2.68,10.18,8.21h-5.82Z"/>
      <path class="cls-1" d="M130.51,4.9h-5.95V0h5.95v4.9ZM124.57,8.25h5.95v21.65h-5.95V8.25Z"/>
      <path class="cls-1" d="M138.55,22.87c.04,2.6,2.22,3.64,4.56,3.64,1.72,0,3.9-.67,3.9-2.76,0-1.8-2.47-2.43-6.74-3.35-3.44-.75-6.87-1.97-6.87-5.78,0-5.53,4.77-6.95,9.42-6.95s9.09,1.59,9.55,6.91h-5.65c-.17-2.3-1.93-2.93-4.06-2.93-1.34,0-3.31.25-3.31,2.01,0,2.14,3.35,2.43,6.74,3.22,3.48.8,6.87,2.05,6.87,6.07,0,5.7-4.94,7.54-9.88,7.54s-9.93-1.88-10.18-7.62h5.65Z"/>
      <path class="cls-1" d="M3.17,38.45h5.66v3.02h.12c1.51-2.43,4.1-3.6,6.62-3.6,6.32,0,7.92,3.56,7.92,8.92v13.32h-5.95v-12.23c0-3.56-1.05-5.32-3.81-5.32-3.22,0-4.61,1.8-4.61,6.2v11.35H3.17v-21.65Z"/>
      <path class="cls-1" d="M26.49,45.11c.34-5.57,5.32-7.25,10.18-7.25,4.31,0,9.51.96,9.51,6.16v11.27c0,1.97.21,3.94.75,4.82h-6.03c-.21-.67-.38-1.38-.42-2.09-1.88,1.97-4.65,2.68-7.29,2.68-4.1,0-7.37-2.05-7.37-6.49,0-4.9,3.69-6.07,7.37-6.57,3.64-.55,7.04-.42,7.04-2.85,0-2.55-1.76-2.93-3.85-2.93-2.26,0-3.73.92-3.94,3.27h-5.95ZM40.23,49.51c-1.01.88-3.1.92-4.94,1.26-1.84.38-3.52,1.01-3.52,3.18s1.72,2.76,3.64,2.76c4.65,0,4.82-3.69,4.82-4.98v-2.22Z"/>
      <path class="cls-1" d="M57.06,38.45h4.36v3.98h-4.36v10.72c0,2.01.5,2.51,2.51,2.51.63,0,1.21-.04,1.84-.17v4.65c-1.01.17-2.3.21-3.48.21-3.64,0-6.83-.84-6.83-5.15v-12.77h-3.6v-3.98h3.6v-6.49h5.95v6.49Z"/>
      <path class="cls-1" d="M83.32,60.1h-5.65v-3.02h-.13c-1.51,2.43-4.1,3.6-6.62,3.6-6.33,0-7.92-3.56-7.92-8.92v-13.32h5.95v12.23c0,3.56,1.05,5.32,3.81,5.32,3.23,0,4.61-1.8,4.61-6.2v-11.35h5.95v21.65Z"/>
      <g>
        <path class="cls-1" d="M12.79,18.67c-.28,0-.37,0-.6.28-1.34,1.62-2.55,3.42-3.84,5.14-.6.79-1.25,1.81-1.25,2.82,0,1.2,1.29,1.39,2.41,1.57.88.14,1.67.19,1.67.74,0,.42-.41.55-.88.55-1.81,0-3.66-.18-5.47-.18-1.44,0-3.01.18-4.03.18-.6,0-.79-.18-.79-.51,0-.51.65-.55,1.07-.65,2.5-.46,3.52-2.13,4.96-3.98,6.11-7.88,12.46-15.84,18.44-23.62.46-.6.69-1.02,1.11-1.02.55,0,.46,1.2.46,1.53.18,7.88.41,15.8.6,23.67.09,2.82.28,3.29,1.95,3.42.6.05,1.34-.05,1.34.56,0,.55-.41.6-.79.6-1.62,0-3.33-.18-4.96-.18-1.3,0-2.78.18-4.07.18-.65,0-1.16,0-1.16-.51,0-.65.83-.65,2.04-.69,1.02-.05,2.04-.55,2.04-2.55,0-2.46-.18-4.91-.23-7.37h-10.01ZM22.33,5.97h-.05c-2.92,3.8-5.84,7.55-8.8,11.35h9.27l-.42-11.35Z"/>
        <path class="cls-1" d="M50.75,10.75c0,1.2-.74,2.69-2.13,2.69-.51,0-.83-.09-1.02-.28-.46-.51-.51-1.2-.69-1.67-.09-.18-.23-.32-.55-.32-1.25,0-4.08,4.17-4.59,5-1.72,2.69-4.73,8.38-5.6,11.35-.51,1.71-.37,2.08-2.23,2.08-.41,0-1.3.09-1.3-.6,0-.23.28-1.11.32-1.3,1.34-4.4,2.73-8.85,4.08-13.25.23-.83.55-1.85.55-2.69,0-.42-.09-.97-.6-.97-.74,0-1.9,1.16-2.69,2.13-.51.65-.69.97-1.16,1.58-.14.18-.41.69-.69.69-.18,0-.32-.14-.32-.32,0-.74,1.9-2.96,2.36-3.47.97-1.11,3.1-3.01,4.63-3.01,1.39,0,1.71,1.72,1.71,2.73,0,2.04-1.76,6.72-2.64,9.59h.09c1.62-2.96,6.16-12.32,10.14-12.32,1.39,0,2.32.88,2.32,2.32v.05Z"/>
        <path class="cls-1" d="M49.6,27.65c0-1.2.51-2.78.88-3.93,1.39-4.5,2.78-8.99,4.12-13.43h-2.64c-.6,0-1.06,0-1.06-.37,0-.28.05-.46.18-.6.18-.23.55-.23,1.06-.23h2.78l1.53-4.96c.14-.37.51-.51.79-.51h1.71c.32,0,.6.09.6.42s-.18.93-.28,1.2c-.37,1.25-.78,2.55-1.2,3.85h3.47c.69,0,1.02,0,1.02.28,0,.23-.05.32-.18.65-.09.28-.65.28-1.06.28h-3.57c-1.39,4.63-2.82,9.31-4.26,13.99-.18.55-.55,1.62-.55,2.22,0,.46.18.97.74.97,1.11,0,2.83-2.22,3.47-3.1.56-.78,1.07-1.81,1.35-1.81.23,0,.37.19.37.37,0,.51-1.11,2.04-1.39,2.41-1.16,1.58-4.03,4.82-6.16,4.82-1.3,0-1.71-1.39-1.71-2.46v-.05Z"/>
        <path class="cls-1" d="M70.25,10.14c0,.83-.51,2.5-.79,3.33-1.11,3.71-2.27,7.41-3.43,11.12-.18.6-.41,1.25-.41,1.85,0,.46.18.83.6.83.88,0,2.55-1.95,3.47-3.33.46-.69.88-1.48,1.25-1.48.23,0,.28.14.28.32,0,.79-1.48,2.69-1.95,3.29-1.11,1.39-3.71,4.08-5.65,4.08-1.21,0-1.44-.79-1.44-1.86,0-1.2.51-2.96.83-4.07,1.11-3.61,2.22-7.18,3.29-10.75.09-.37.37-1.16.37-1.57,0-.37-.09-.83-.55-.83-.74,0-1.76.97-2.69,1.95-.97,1.02-1.76,2.13-2.08,2.13-.18,0-.28-.14-.28-.37,0-.6,1.9-2.64,2.27-3.01,1.16-1.11,3.7-3.38,5.47-3.38,1.11,0,1.44.7,1.44,1.72v.05ZM72.75,2.41c0,1.25-1.02,3.01-2.46,3.01-.97,0-1.44-.83-1.44-1.71,0-1.2,1.02-2.96,2.36-2.96.92,0,1.53.74,1.53,1.62v.05Z"/>
      </g>
      <g>
        <path class="cls-1" d="M105.15,40.02c0,1.28-.79,2.86-2.27,2.86-.54,0-.89-.1-1.08-.3-.49-.54-.54-1.28-.74-1.78-.1-.2-.25-.35-.59-.35-1.33,0-4.34,4.44-4.88,5.33-1.83,2.86-5.03,8.93-5.97,12.09-.54,1.82-.4,2.22-2.37,2.22-.44,0-1.38.1-1.38-.64,0-.25.3-1.19.35-1.38,1.43-4.69,2.91-9.43,4.34-14.11.25-.89.59-1.97.59-2.86,0-.45-.1-1.04-.64-1.04-.79,0-2.02,1.23-2.86,2.27-.54.69-.74,1.04-1.23,1.68-.14.2-.44.74-.74.74-.2,0-.35-.15-.35-.35,0-.79,2.02-3.16,2.52-3.7,1.04-1.19,3.31-3.21,4.94-3.21,1.48,0,1.82,1.83,1.82,2.91,0,2.17-1.88,7.16-2.81,10.21h.1c1.72-3.16,6.56-13.13,10.8-13.13,1.48,0,2.47.94,2.47,2.47v.05Z"/>
        <path class="cls-1" d="M100.87,55.56c0-4.14,2.86-9.13,5.67-12.09,3.01-3.16,7.45-5.97,11.94-5.97,3.01,0,3.65,1.73,3.75,1.73s.3-.94.59-1.63c.15-.35.3-.49.69-.54.54-.05,1.28-.1,1.78-.1.44,0,.84.1.84.49,0,.25-.2.79-.25.99-1.68,5.52-3.35,11.1-5.08,16.68-.14.39-.39,1.19-.39,1.63,0,.39.1.74.49.74,1.23,0,3.55-3.11,4.15-4.05.14-.25.49-.89.84-.89.2,0,.35.2.35.39,0,.89-2.02,3.46-2.62,4.1-1.23,1.33-3.9,3.65-5.87,3.65-.89,0-1.33-.59-1.33-1.43,0-.94.3-1.92.54-2.76,1.04-3.26,2.07-6.51,3.06-9.77h-.1c-2.71,4.54-9.32,13.97-15.15,13.97-2.76,0-3.9-2.67-3.9-5.08v-.05ZM121.54,40.95c0-1.78-1.48-2.52-3.16-2.52-3.6,0-7.11,3.45-9.18,6.17-1.87,2.37-4.49,7.35-4.49,10.46,0,1.38.69,3.01,2.27,3.01,3.01,0,7.4-5.28,9.13-7.45,1.38-1.73,5.43-7.35,5.43-9.62v-.05Z"/>
        <path class="cls-1" d="M127.5,58.71c0-1.33.49-3.01.89-4.29,2.27-7.45,4.54-14.85,6.81-22.25.15-.44.49-1.58.49-2.02,0-1.14-1.08-1.24-1.92-1.24s-1.38,0-1.38-.49c0-.64.79-.64,1.48-.64,1.48,0,3.8-.64,5.13-1.53.45-.29,1.19.69,1.08,1.08-2.81,9.18-5.62,18.36-8.44,27.53-.2.59-.49,1.58-.49,2.07,0,.45.2.74.69.74,1.19,0,3.7-3.45,4.29-4.49.15-.25.35-.64.74-.64.2,0,.25.15.25.35,0,.89-1.58,2.91-2.07,3.5-1.14,1.43-3.95,4.29-6.02,4.29-1.28,0-1.53-.79-1.53-1.92v-.05Z"/>
        <path class="cls-1" d="M152.47,54.08c0,1.78-1.48,3.75-2.86,4.79-1.68,1.19-3.85,1.83-5.87,1.83-1.87,0-4.09-.64-5.67-1.68-.45-.3-1.14-.79-1.14-1.38,0-.39.35-1.23.45-1.58.1-.39.3-1.78.99-1.78.39,0,.79.49,1.18,1.19,1.04,1.58,2.37,4.14,5.43,4.14,2.02,0,4.39-1.63,4.39-3.8s-1.97-3.85-3.95-5.62-3.95-3.65-3.95-5.97c0-4.29,4.05-6.71,7.95-6.71.98,0,5.97.35,5.97,2.07,0,.39-.25,1.04-.35,1.43-.15.4-.25,1.43-.89,1.43-.55,0-1.29-.94-2.32-1.92-1.04-.99-2.32-1.92-3.99-1.92-1.92,0-3.5,1.33-3.5,3.3s1.97,3.65,3.95,5.53c2.07,1.92,4.19,4,4.19,6.61v.05Z"/>
      </g>
    </g>
  </g>
</svg>