<?xml version="1.0" encoding="UTF-8"?>
<svg id="Capa_2" data-name="Capa 2" xmlns="http://www.w3.org/2000/svg" viewBox="0 0 344.17 34.81">
  <defs>
    <style>
      .cls-1 {
        fill: #fff;
      }
    </style>
  </defs>
  <g id="Capa_1-2" data-name="Capa 1">
    <g>
      <path class="cls-1" d="m3.55,25.81c0,1.13-.5,1.77-1.77,1.77s-1.77-.64-1.77-1.77V0h11.77c1.63,0,2.8.25,4.08,1.45,1.52,1.42,1.67,2.73,1.67,4.64v4.82c0,1.81-.14,3.08-1.45,4.54-1.38,1.56-2.84,1.7-4.75,1.7H3.55v8.65Zm0-12.2h7.87c2.09,0,2.55-.53,2.55-2.55v-4.96c0-2.02-.46-2.55-2.55-2.55H3.55v10.07Z"/>
      <path class="cls-1" d="m25.96,10.99c0-1.24.14-2.52,1.7-2.52,1.35,0,1.7,1.13,1.7,2.27v1.38l2.66-2.2c.96-.78,1.95-1.45,3.01-1.45h2.73c1.31,0,2.41.43,3.33,1.35,1.13,1.13,1.52,2.3,1.52,3.86,0,1.17-.21,2.38-1.67,2.38-1.24,0-1.74-.99-1.74-2.09,0-.57,0-.99-.35-1.49-.43-.6-1.24-.6-2.06-.6h-.99c-.64,0-1.1.32-1.7.82l-4.75,3.94v8.61c0,1.17-.25,2.34-1.7,2.34s-1.7-1.17-1.7-2.34v-14.25Z"/>
      <path class="cls-1" d="m51.49,14.82c0-2.27.46-3.05,2.16-4.43,1.67-1.38,2.45-1.91,4.82-1.91h2.69c2.37,0,3.16.53,4.82,1.91,1.7,1.38,2.16,2.16,2.16,4.43v6.42c0,2.23-.57,3.08-2.34,4.57s-2.48,1.77-4.64,1.77h-2.69c-2.16,0-2.87-.28-4.64-1.77-1.77-1.49-2.34-2.34-2.34-4.57v-6.42Zm3.4,6.42c0,.71.25,1.17,1.24,2.02.74.64,1.28.92,2.34.92h2.69c1.06,0,1.6-.28,2.34-.92.99-.85,1.24-1.31,1.24-2.02v-6.42c0-.71-.25-1.17-1.24-2.02-.74-.64-1.28-.92-2.34-.92h-2.69c-1.06,0-1.6.28-2.34.92-.99.85-1.24,1.31-1.24,2.02v6.42Z"/>
      <path class="cls-1" d="m90.28,12.76v-1.95c0-1.17.25-2.34,1.7-2.34s1.7,1.17,1.7,2.34v1.38c0,.85-.07,1.42-.43,2.16l-8.58,18.68c-.75,1.6-1.13,1.77-2.69,1.77h-2.62c-.99,0-2.34-.21-2.34-1.7s1.21-1.7,2.34-1.7h2.34l2.52-5.21h-.18c-1.42,0-1.49-.64-2.02-1.81l-4.18-9.25c-.46-1.03-.82-1.81-.82-2.8v-1.53c0-1.17.25-2.34,1.7-2.34s1.7,1.17,1.7,2.34v1.95l4.57,10.03h.74l4.54-10.03Z"/>
      <path class="cls-1" d="m108.79,27.58c-1.42,0-1.99,0-3.05-.92l-1.45-1.28c-1.35-1.21-1.74-1.98-1.74-3.83v-6.56c0-1.81.25-2.87,1.67-4.08l1.21-1.03c1.6-1.38,2.38-1.42,3.76-1.42h3.12c1.67,0,2.45.18,3.76,1.24l1.38,1.1c1.56,1.24,1.77,2.55,1.77,4.43v2.73c0,1.95-.32,2.52-2.34,2.52h-10.92v1.13c0,.32.25.75.5.99l.85.92c.46.5,1.13.64,2.27.64h7.3c1.13,0,2.34.25,2.34,1.7s-1.35,1.7-2.34,1.7h-8.08Zm-2.84-10.49h9.86v-2.06c0-.64.04-1.17-.43-1.6l-1.31-1.13c-.43-.39-1.1-.43-1.63-.43h-2.87c-.64,0-1.17,0-1.74.39l-1.17.85c-.43.32-.71.57-.71,1.56v2.41Z"/>
      <path class="cls-1" d="m128.08,16.38c0-2.09.39-3.12,2.02-4.47l2.52-2.09c1.6-1.31,2.41-1.35,4.4-1.35h5.39c1.13,0,2.34.25,2.34,1.7s-1.35,1.7-2.34,1.7h-5.99c-.67,0-1.35.35-1.95.85l-2.06,1.74c-.53.43-.92.78-.92,1.45v4.22c0,.67.39,1.03.92,1.45l2.06,1.74c.6.5,1.28.85,1.95.85h5.99c.99,0,2.34.21,2.34,1.7s-1.21,1.7-2.34,1.7h-5.39c-1.98,0-2.8-.04-4.4-1.35l-2.52-2.09c-1.63-1.35-2.02-2.37-2.02-4.47v-3.3Z"/>
      <path class="cls-1" d="m160.46,21.17c0,1.91-.07,3.01,2.27,3.01h1.74c1.38,0,2.02-.11,2.38-1.49.21-.82.85-1.38,1.7-1.38.96,0,1.74.74,1.74,1.7s-.6,2.16-1.17,2.84c-1.24,1.49-2.87,1.74-4.68,1.74h-1.74c-1.7,0-3.19-.39-4.4-1.7-1.31-1.45-1.24-2.91-1.24-4.75v-9.25h-1.1c-.99,0-2.34-.21-2.34-1.7s1.21-1.7,2.34-1.7h1.1v-3.47c0-1.17.25-2.34,1.7-2.34s1.7,1.17,1.7,2.34v3.47h5.71c1.13,0,2.34.25,2.34,1.7s-1.35,1.7-2.34,1.7h-5.71v9.29Z"/>
      <path class="cls-1" d="m179.15,14.82c0-2.27.46-3.05,2.16-4.43,1.67-1.38,2.45-1.91,4.82-1.91h2.69c2.38,0,3.16.53,4.82,1.91,1.7,1.38,2.16,2.16,2.16,4.43v6.42c0,2.23-.57,3.08-2.34,4.57-1.77,1.49-2.48,1.77-4.64,1.77h-2.69c-2.16,0-2.87-.28-4.64-1.77-1.77-1.49-2.34-2.34-2.34-4.57v-6.42Zm3.4,6.42c0,.71.25,1.17,1.24,2.02.74.64,1.28.92,2.34.92h2.69c1.06,0,1.6-.28,2.34-.92.99-.85,1.24-1.31,1.24-2.02v-6.42c0-.71-.25-1.17-1.24-2.02-.74-.64-1.28-.92-2.34-.92h-2.69c-1.06,0-1.6.28-2.34.92-.99.85-1.24,1.31-1.24,2.02v6.42Z"/>
      <path class="cls-1" d="m233.26,3.54h-1.31c-1.17,0-2.16-.43-2.16-1.77,0-1.28.96-1.77,2.06-1.77h5.92c2.76,0,4.15,1.13,5.35,3.54l3.12,6.24c.71,1.45,1.06,2.48,1.06,4.11,0,1.42-.39,2.62-1.03,3.9l-3.23,6.45c-1.24,2.52-2.84,3.33-5.6,3.33h-5.88c-.92,0-1.77-.5-1.77-1.77s.85-1.77,1.77-1.77h1.7V3.54Zm3.55,20.49h.67c1.49,0,1.84-.18,2.48-1.49l3.12-6.31c.39-.82.67-1.42.67-2.3,0-1.21-.39-1.88-.89-2.91l-2.94-5.99c-.74-1.52-1.06-1.49-2.69-1.49h-.43v20.49Z"/>
      <path class="cls-1" d="m261.98,27.58c-1.42,0-1.99,0-3.05-.92l-1.45-1.28c-1.35-1.21-1.74-1.98-1.74-3.83v-6.56c0-1.81.25-2.87,1.67-4.08l1.21-1.03c1.6-1.38,2.38-1.42,3.76-1.42h3.12c1.67,0,2.45.18,3.76,1.24l1.38,1.1c1.56,1.24,1.77,2.55,1.77,4.43v2.73c0,1.95-.32,2.52-2.34,2.52h-10.92v1.13c0,.32.25.75.5.99l.85.92c.46.5,1.13.64,2.27.64h7.3c1.13,0,2.34.25,2.34,1.7s-1.35,1.7-2.34,1.7h-8.08Zm-2.84-10.49h9.86v-2.06c0-.64.04-1.17-.43-1.6l-1.31-1.13c-.43-.39-1.1-.43-1.63-.43h-2.87c-.64,0-1.17,0-1.74.39l-1.17.85c-.43.32-.71.57-.71,1.56v2.41Z"/>
      <path class="cls-1" d="m287.08,11.88c-.71,0-1.91-.14-1.91.96,0,.57.43.78.92.99l8.51,3.86c2.2.99,3.33,2.38,3.33,4.82,0,3.44-2.34,5.07-5.6,5.07h-5.25c-1.77,0-2.98-.07-4.25-1.06-.64-.5-1.56-1.13-1.56-1.98,0-.96.82-1.7,1.77-1.7.53,0,.92.18,1.31.6.6.67,1.67.74,2.73.74h4.61c1.21,0,2.84.11,2.84-1.88,0-.82-.99-1.35-1.77-1.7l-8.01-3.65c-1.88-.85-2.98-1.95-2.98-4.15,0-2.69,2.13-4.32,4.68-4.32h5.81c1.88,0,2.66.11,3.94,1.17.64.53,1.35.96,1.35,1.91s-.82,1.7-1.74,1.7c-.64,0-1.03-.25-1.45-.71-.57-.6-1.17-.67-2.09-.67h-5.18Z"/>
      <path class="cls-1" d="m311.8,11.88h-.96c-.99,0-2.34-.21-2.34-1.7s1.21-1.7,2.34-1.7h.96v-.46c0-1.95.11-3.37,1.63-4.86,1.63-1.56,3.16-1.7,5.25-1.7h2.3c1.17,0,2.48.11,2.48,1.7,0,1.45-1.17,1.7-2.34,1.7h-2.66c-2.3,0-3.26.46-3.26,2.94v.67h3.01c1.13,0,2.34.25,2.34,1.7s-1.35,1.7-2.34,1.7h-3.01v13.37c0,1.17-.25,2.34-1.7,2.34s-1.7-1.17-1.7-2.34v-13.37Z"/>
      <path class="cls-1" d="m339.39,23.04c-.78,0-1.35,0-1.84-.67-.39-.53-.39-.92-.39-1.6v-1.98c0-.67,0-1.06.39-1.6.5-.67,1.06-.67,1.84-.67h2.55c.78,0,1.35,0,1.84.67.39.53.39.92.39,1.6v1.98c0,.67,0,1.06-.39,1.6-.5.67-1.06.67-1.84.67h-2.55Z"/>
    </g>
  </g>
</svg>