<?xml version="1.0" encoding="UTF-8"?>
<svg id="Capa_2" data-name="Capa 2" xmlns="http://www.w3.org/2000/svg" viewBox="0 0 600 193.64">
  <defs>
    <style>
      .cls-1 {
        fill: #d41917;
      }

      .cls-1, .cls-2 {
        stroke-width: 0px;
      }

      .cls-2 {
        fill: #d51a18;
      }
    </style>
  </defs>
  <g id="Capa_1-2" data-name="Capa 1">
    <g>
      <g>
        <path class="cls-2" d="M489.19,63.42c-2.36-6.43-5.65-12.12-9.85-17.08-4.21-4.96-9.24-8.91-15.1-11.84-5.86-2.93-12.33-4.4-19.42-4.4,0,0,0,0,0,0h0s-161.77,0-161.77,0l-5.39,14.04h-1.35c-3.2-3.87-7.26-7.18-12.21-9.92-4.94-2.74-10.91-4.11-17.9-4.11-4.79,0-9.14.71-13.03,2.13-3.89,1.42-7.22,3.38-9.96,5.88-2.75,2.51-4.89,5.46-6.44,8.86-1.55,3.4-2.32,7.14-2.32,11.2,0,6.24,1.7,11.46,5.09,15.67,3.39,4.21,7.84,7.44,13.33,9.71,3.39,1.42,7.06,2.67,11.01,3.76,3.94,1.09,7.86,2.13,11.76,3.12,3.89.99,7.59,1.94,11.08,2.84,3.49.9,6.54,1.87,9.14,2.91,2.49,1.04,4.87,2.84,7.11,5.39,2.25,2.55,3.37,5.81,3.37,9.78,0,4.92-1.87,8.86-5.62,11.84-3.74,2.98-9.11,4.47-16.1,4.47-4.4,0-8.69-.76-12.88-2.27-4.19-1.51-8.16-3.76-11.91-6.73-3.74-2.98-7.14-6.66-10.19-11.06-3.05-4.4-5.62-11.14-7.71-16.81h-9.44s-6.61,0-6.61,0c-.2,1.87-.52,3.77-.96,5.68-.44,1.92-1.11,4.7-1.99,8.34-.99,4.04-2.14,7.46-3.47,10.26-1.33,2.81-3.03,5.14-5.09,7.01-2.07,1.87-4.53,3.23-7.38,4.06-2.86.84-6.35,1.25-10.48,1.25h-25.98c-1.67,0-2.88-.3-3.62-.89-.74-.59-1.11-2.02-1.11-4.28v-34.84h10.63c4.04,0,7.01.76,8.93,2.29,1.92,1.53,3.32,3.76,4.21,6.72.49,1.77.89,3.76,1.18,5.98.3,2.21.54,4.31.74,6.27h9.15v-51.38h-9.15c-.2,1.97-.44,4.06-.74,6.27-.3,2.21-.69,4.21-1.18,5.98-.89,2.95-2.29,5.19-4.21,6.72-1.92,1.53-4.9,2.29-8.93,2.29h-10.63v-33.37c0-2.26.37-3.69,1.11-4.28.74-.59,1.94-.89,3.62-.89h21.56c5.32,0,9.62.39,12.92,1.18,3.3.79,5.93,2.04,7.9,3.77,1.97,1.72,3.52,3.96,4.65,6.72,1.13,2.76,2.14,6.1,3.03,10.04l2.21,9.74h8.42V30.1h-103.94v9.74l12.25.59c1.97.1,3.59.35,4.87.74,1.28.39,2.26.96,2.95,1.7.69.74,1.16,1.72,1.4,2.95.24,1.23.37,2.73.37,4.5v66.73c0,1.77-.12,3.27-.37,4.5-.25,1.23-.72,2.21-1.4,2.95-.69.74-1.67,1.31-2.95,1.7-1.28.39-2.9.64-4.87.74l-12.25.59v9.74h113.92l6.44-17.58h1.35c4.29,5.1,9.31,9.31,15.05,12.62,5.74,3.31,12.6,4.96,20.59,4.96,5.09,0,9.86-.66,14.3-1.99,4.44-1.32,8.31-3.26,11.61-5.81,3.3-2.55,5.89-5.67,7.79-9.36,1.9-3.69,2.85-7.84,2.85-12.48,0-5.95-1.4-11.03-4.19-15.24-2.8-4.2-6.39-7.39-10.78-9.57-3.4-1.7-7.14-3.17-11.23-4.39-4.1-1.23-8.21-2.36-12.36-3.4-4.14-1.04-8.16-2.06-12.06-3.05-3.89-.99-7.24-2.06-10.03-3.19-3.3-1.32-5.99-3.14-8.09-5.46-2.1-2.32-3.15-5.22-3.15-8.72,0-4.91,1.5-8.6,4.49-11.06,3-2.46,7.34-3.69,13.03-3.69,3.79,0,7.44.69,10.93,2.06,3.49,1.37,6.76,3.33,9.81,5.88,3.04,2.55,5.82,5.6,8.31,9.15,2.49,3.54,4.64,7.49,6.44,11.84h9.44v-.02h.32l1.84-9.45c.52-3.23,1.27-6.12,2.23-8.66.96-2.53,2.18-4.68,3.67-6.43,1.49-1.75,3.36-3.08,5.64-4,2.27-.92,4.98-1.38,8.13-1.38h9.31v80.44c0,1.57-.11,2.91-.33,4-.22,1.09-.63,1.97-1.24,2.62-.61.66-1.49,1.16-2.62,1.51-1.14.35-2.58.57-4.33.66l-10.88.52v8.65h141.35s0,0,0,0c7.09,0,13.56-1.47,19.42-4.4,5.86-2.93,10.89-6.85,15.1-11.77,4.2-4.91,7.49-10.61,9.85-17.08,2.36-6.47,3.54-13.26,3.54-20.35s-1.18-13.85-3.54-20.28ZM365.74,123.5c-.22,1.08-.63,1.94-1.23,2.59-.6.65-1.47,1.15-2.59,1.49-1.12.35-2.55.56-4.27.65l-4.53.22-6.91-.33c-1.75-.09-3.19-.31-4.33-.66-1.14-.35-2.01-.85-2.62-1.51-.61-.66-1.03-1.53-1.25-2.62-.22-1.09-.33-2.43-.33-4V38.89h9.31c3.15,0,5.86.46,8.13,1.38,2.27.92,4.15,2.25,5.64,4,1.49,1.75,2.71,3.89,3.67,6.43.96,2.54,1.1,5.42,1.63,8.65v60.21c0,1.55-.11,2.87-.32,3.95ZM384.84,127.58c-1.12-.34-1.99-.84-2.59-1.49-.61-.65-1.02-1.51-1.23-2.59-.22-1.08-.32-2.4-.32-3.95v-60.53c.52-3.1,1.24-5.88,2.17-8.33.96-2.53,2.18-4.68,3.67-6.43,1.49-1.75,3.36-3.08,5.64-4,1.12-.45,13.21-.79,25.59-1.02-2.73,2.08-5.23,4.43-7.48,7.09-4.21,4.96-7.47,10.66-9.78,17.08-2.32,6.43-3.47,13.19-3.47,20.28s1.16,13.87,3.47,20.35c2.32,6.48,5.58,12.17,9.78,17.08,2.38,2.78,5.03,5.23,7.93,7.37l-29.1-.27c-1.73-.09-3.15-.3-4.27-.65ZM471.89,104.61c-1.8,6-4.35,10.9-7.66,14.67-4.82,5.48-11.3,8.22-19.42,8.22s-14.6-2.74-19.42-8.22c-3.31-3.78-5.84-8.67-7.59-14.67-1.75-6-2.62-12.97-2.62-20.91s.87-14.91,2.62-20.91c1.75-6,4.27-10.89,7.59-14.67,4.82-5.48,11.29-8.22,19.42-8.22s14.6,2.74,19.42,8.22c3.31,3.78,5.86,8.67,7.66,14.67,1.79,6,2.69,12.97,2.69,20.91s-.9,14.91-2.69,20.91Z"/>
        <path class="cls-2" d="M363.07,14.63c2.76-1.81,5.61-3.63,8.55-5.44,2.93-1.81,5.87-3.67,8.81-5.57,1.47-.95,2.89-1.79,4.27-2.53,1.38-.73,2.93-1.1,4.66-1.1,1.81,0,3.3.54,4.47,1.62,1.17,1.08,1.75,2.53,1.75,4.34,0,2.59-.95,4.49-2.85,5.7-1.9,1.21-3.97,2.12-6.22,2.72l-21.24,5.57-2.2-5.31Z"/>
      </g>
      <g>
        <path class="cls-1" d="M17.04,167.68c-.04.12-.06.28-.06.49-.04.09-.07.14-.11.14h-.46c-.16,0-.3.07-.43.21-1.32,2.37-2.78,5-4.38,7.89-1.21,2.09-2.96,5.31-5.27,9.65-.23.44-.43.65-.6.65s-.28-.16-.35-.47c-.46-2.29-1.1-5.47-1.9-9.54-.71-3.68-1.27-6.31-1.66-7.9-.07-.33-.3-.49-.68-.49H.12c-.09,0-.13-.04-.11-.14,0,.04.03-.09.09-.39.03-.14.1-.21.21-.21h5.15c.12,0,.18.06.18.18,0,.01-.03.14-.1.39-.02.11-.07.17-.17.17h-.71c-.21,0-.34.09-.4.27-.06.16-.06.4,0,.74.19,1.06.58,3.24,1.17,6.55.35,1.96.79,4.32,1.31,7.09.04.18.1.26.18.26.07,0,.15-.08.22-.24,1-1.83,2.36-4.35,4.08-7.58.76-1.43,1.59-3.02,2.5-4.76.34-.69.56-1.29.65-1.79.12-.36.02-.54-.3-.54h-1.66c-.14,0-.19-.04-.17-.14,0-.11.02-.27.06-.46,0-.09.04-.14.11-.14h4.51c.09,0,.14.04.14.11Z"/>
        <path class="cls-1" d="M24.59,174.86c0,.12-.13.29-.4.5-1.73,1.44-3.94,2.84-6.61,4.22-.16.06-.26.18-.29.35-.06.27-.08.69-.08,1.25,0,1.21.28,2.15.85,2.81.5.58,1.12.86,1.87.86,1.18,0,2.35-.52,3.53-1.56.07-.07.13-.07.2-.03.03.02.08.09.17.2.04.08.04.15,0,.19-.35.51-.88,1.01-1.59,1.49-1.41.97-2.7,1.45-3.88,1.45-.81,0-1.48-.45-2.03-1.36-.6-1-.9-2.36-.9-4.08,0-2.3.86-4.29,2.58-5.98,1.17-1.14,2.22-1.71,3.15-1.71,1.32,0,2.05.48,2.18,1.43.03.15.12.22.27.22.04,0,.17-.11.38-.33.21-.22.34-.32.38-.3.16.06.24.18.24.37ZM21.65,176.2c.02-.38-.11-.71-.38-1-.27-.29-.58-.43-.95-.43-.68,0-1.24.23-1.69.7-.54.53-.92,1.61-1.14,3.24-.02.12,0,.19.03.21.03,0,.08,0,.17-.04,1.46-.69,2.74-1.47,3.86-2.34.05-.03.08-.14.1-.33Z"/>
        <path class="cls-1" d="M35.87,174.3c0,.27-.12.52-.36.77-.27.27-.59.4-.95.4-.44,0-.96-.06-1.56-.18-.15-.03-.27,0-.38.08-.6.52-1.21,1.3-1.82,2.34-.84,1.44-1.4,2.87-1.65,4.28-.15.78-.35,2.17-.6,4.16-.03.19-.13.28-.31.28h-1.29c-.18,0-.25-.08-.22-.25.21-1.16.54-3.08.97-5.76.3-2.19.45-3.83.45-4.92,0-.18-.05-.25-.14-.24-.4.15-.9.48-1.5.98-.07.06-.13.07-.18.03-.05-.04-.11-.1-.2-.19-.04-.06-.03-.12.03-.18.83-.86,1.79-1.56,2.88-2.1.38-.2.64-.29.79-.29.14,0,.21.09.21.26,0,.25-.01.49-.04.71-.14,1.63-.29,2.99-.45,4.07-.05.25-.06.39-.03.4.05-.04.11-.15.2-.35.49-1.15,1.24-2.3,2.25-3.45.98-1.12,1.92-1.68,2.8-1.68.73,0,1.1.28,1.1.83Z"/>
        <path class="cls-1" d="M54.57,184.95c.05.08.04.14-.03.17-.44.39-1.08.74-1.92,1.04-.79.29-1.45.43-1.99.43-.18,0-.27-.13-.25-.39.1-1.11.28-2.42.54-3.91.42-2.38.63-4.25.63-5.63,0-.86-.27-1.29-.82-1.29-.87,0-1.77.78-2.68,2.34-.71,1.22-1.25,2.59-1.6,4.09-.19.85-.42,2.3-.68,4.35-.02.19-.1.28-.25.28h-1.36c-.15,0-.21-.08-.18-.25.22-1.17.55-3.09.97-5.76.22-1.68.33-2.93.33-3.76s-.27-1.29-.82-1.29c-.87,0-1.76.78-2.67,2.34-.72,1.22-1.26,2.59-1.6,4.09-.2.85-.43,2.3-.68,4.35-.03.19-.12.28-.26.28h-1.36c-.14,0-.19-.08-.17-.25.21-1.16.53-3.08.96-5.76.29-2.06.45-3.7.49-4.92,0-.14-.05-.21-.17-.21-.23,0-.7.29-1.4.86-.14.11-.23.15-.28.11-.07-.06-.12-.13-.17-.19-.05-.07-.04-.15.03-.21.83-.83,1.71-1.48,2.64-1.96.52-.27.87-.4,1.06-.4.09,0,.14.13.14.4,0,.15-.02.41-.06.79-.07.83-.21,2.04-.4,3.64-.02.19-.03.31-.03.36,0,.05.03.04.07-.01.04-.06.09-.16.17-.32.55-1.25,1.23-2.35,2.04-3.3.93-1.07,1.81-1.6,2.66-1.6,1.02,0,1.53.92,1.53,2.77,0,.74-.05,1.42-.14,2.04-.04.26-.04.39-.01.4.05-.04.12-.17.21-.4.55-1.23,1.22-2.3,2.03-3.21.94-1.07,1.82-1.6,2.64-1.6,1.07,0,1.6.92,1.6,2.77,0,.93-.22,2.79-.65,5.58-.21,1.34-.32,2.46-.32,3.37,0,.25.09.35.27.31.58-.14,1.13-.39,1.65-.74.08-.05.15-.04.19.03.02.02.06.08.11.18Z"/>
        <path class="cls-1" d="M67.71,184.95c.05.06.03.12-.06.19-.37.33-.94.64-1.71.95-.84.33-1.54.5-2.1.5-.21,0-.32-.09-.32-.28,0-.31.04-.89.14-1.74.13-1.12.28-2.3.46-3.54.02-.13.02-.22.01-.28-.01-.04-.03-.05-.06-.01-.04.04-.08.12-.13.24-.56,1.39-1.36,2.67-2.37,3.85-1.02,1.17-1.89,1.76-2.62,1.76-1.06,0-1.59-.92-1.59-2.75,0-.94.22-2.8.65-5.59.2-1.34.31-2.46.31-3.38,0-.18-.06-.26-.17-.26-.53,0-1.12.24-1.77.71-.06.06-.1.06-.14,0-.03-.04-.07-.11-.14-.22-.04-.06-.03-.11.03-.14.44-.41,1.05-.76,1.85-1.06.77-.29,1.43-.43,1.99-.43.2,0,.29.14.29.43,0,.59-.17,1.88-.52,3.86-.42,2.44-.62,4.32-.62,5.65,0,1.05.25,1.57.74,1.57.78,0,1.73-.9,2.85-2.71.91-1.46,1.49-2.86,1.74-4.19.17-.91.37-2.27.6-4.07.02-.15.1-.22.25-.22h1.39c.14,0,.2.06.18.19-.25,1.3-.6,3.36-1.06,6.18-.25,1.84-.37,3.55-.37,5.13,0,.13.06.19.18.19.41,0,1-.25,1.77-.74.07-.05.13-.05.17,0,.02.03.04.06.07.1.03.04.05.07.07.11Z"/>
        <path class="cls-1" d="M77.19,174.06c-.04.06-.11.18-.22.37-.08.15-.23.22-.43.22h-2.77c-.11,0-.18.05-.19.14-.33,1.87-.72,4.41-1.2,7.61-.04.35-.06.78-.06,1.28,0,.57.06.95.17,1.14.19.31.42.46.71.46.57,0,1.32-.38,2.23-1.14.11-.11.24-.21.37-.31.04-.04.08-.03.14.03.09.09.16.18.19.25.02.02.03.04.04.07,0,.19-.46.62-1.38,1.26-1.12.8-2.19,1.2-3.21,1.2-.3,0-.53-.09-.7-.28-.26-.31-.39-.83-.39-1.57,0-.87.06-1.71.17-2.5.26-1.83.67-4.32,1.22-7.47.02-.11-.02-.17-.11-.17h-1.31c-.2,0-.28-.06-.27-.17.03-.11.06-.28.11-.52.05-.11.12-.17.24-.17h1.31c.13,0,.2-.03.22-.08.03-.1.13-.65.32-1.66.06-.29.22-.47.49-.54.22-.06.59-.14,1.11-.22.09-.02.16,0,.22.05s.06.12.04.2c-.2.57-.33,1.21-.4,1.9-.02.23.01.35.1.35.1,0,.62,0,1.56-.01.94,0,1.45-.01,1.54-.01.15,0,.19.09.14.28Z"/>
        <path class="cls-1" d="M95.28,165.57c-.3,1.87-.66,4.34-1.08,7.43-.36,2.65-.66,5.03-.91,7.15-.27,2.32-.4,3.95-.4,4.88,0,.15.06.22.19.22.36,0,.92-.25,1.68-.74.07-.05.13-.05.17,0,.06.06.12.12.15.19.03.05,0,.11-.06.2-.6.69-1.75,1.25-3.45,1.65-.31.07-.48.05-.49-.08-.01-.11,0-.64.06-1.57.04-.79.13-1.7.29-2.73.02-.12.02-.21.01-.27,0-.05-.03-.05-.06-.01-.03.04-.06.11-.11.22-.3.79-.89,1.71-1.79,2.75-.97,1.14-1.86,1.71-2.7,1.71-.77,0-1.41-.36-1.92-1.07-.58-.81-.88-1.93-.88-3.37,0-2.49.83-4.54,2.5-6.13,1.49-1.4,3-2.1,4.54-2.1.43,0,.74.03.9.09.2.06.32.03.35-.11.16-.96.33-2.37.52-4.24.13-1.36.19-2.33.19-2.91,0-.16-.07-.24-.22-.24-.48,0-1.17.14-2.06.43-.08.03-.14,0-.17-.09-.03-.08-.06-.19-.11-.32-.02-.06.03-.12.14-.17.38-.17,1.11-.39,2.18-.68,1.13-.3,1.88-.46,2.24-.46.22,0,.31.12.28.35ZM92.12,175.01c0-.12-.07-.21-.22-.27-.15-.06-.43-.08-.83-.08-1.57,0-2.85.84-3.86,2.53-.86,1.45-1.29,3-1.29,4.65,0,.99.17,1.77.52,2.32.31.5.71.75,1.19.75s1.04-.27,1.61-.79c.61-.56,1.12-1.28,1.52-2.17.38-.83.76-2.38,1.14-4.66.1-.59.18-1.35.24-2.28Z"/>
        <path class="cls-1" d="M106.15,174.86c0,.12-.13.29-.4.5-1.73,1.44-3.94,2.84-6.61,4.22-.16.06-.26.18-.29.35-.06.27-.08.69-.08,1.25,0,1.21.28,2.15.85,2.81.5.58,1.12.86,1.87.86,1.18,0,2.35-.52,3.53-1.56.07-.07.13-.07.2-.03.03.02.08.09.17.2.04.08.04.15,0,.19-.35.51-.88,1.01-1.59,1.49-1.41.97-2.7,1.45-3.88,1.45-.81,0-1.48-.45-2.03-1.36-.6-1-.9-2.36-.9-4.08,0-2.3.86-4.29,2.58-5.98,1.17-1.14,2.22-1.71,3.15-1.71,1.32,0,2.05.48,2.18,1.43.03.15.12.22.27.22.04,0,.17-.11.38-.33.21-.22.34-.32.38-.3.16.06.24.18.24.37ZM103.22,176.2c.02-.38-.11-.71-.38-1-.27-.29-.58-.43-.95-.43-.68,0-1.24.23-1.69.7-.54.53-.92,1.61-1.14,3.24-.02.12,0,.19.03.21.03,0,.08,0,.17-.04,1.46-.69,2.74-1.47,3.86-2.34.05-.03.08-.14.1-.33Z"/>
        <path class="cls-1" d="M121.96,174.86c0,.12-.13.29-.4.5-1.73,1.44-3.94,2.84-6.61,4.22-.16.06-.26.18-.29.35-.06.27-.08.69-.08,1.25,0,1.21.28,2.15.85,2.81.5.58,1.12.86,1.87.86,1.18,0,2.35-.52,3.53-1.56.07-.07.13-.07.2-.03.03.02.08.09.17.2.04.08.04.15,0,.19-.35.51-.88,1.01-1.59,1.49-1.41.97-2.7,1.45-3.88,1.45-.81,0-1.48-.45-2.03-1.36-.6-1-.9-2.36-.9-4.08,0-2.3.86-4.29,2.58-5.98,1.17-1.14,2.22-1.71,3.15-1.71,1.32,0,2.05.48,2.18,1.43.03.15.12.22.27.22.04,0,.17-.11.38-.33.21-.22.34-.32.38-.3.16.06.24.18.24.37ZM119.02,176.2c.02-.38-.11-.71-.38-1-.27-.29-.58-.43-.95-.43-.68,0-1.24.23-1.69.7-.54.53-.92,1.61-1.14,3.24-.02.12,0,.19.03.21.03,0,.08,0,.17-.04,1.46-.69,2.74-1.47,3.86-2.34.05-.03.08-.14.1-.33Z"/>
        <path class="cls-1" d="M128.22,184.98c.04.08.03.14-.03.17-.46.34-1.16.68-2.09,1-.85.3-1.45.45-1.8.45-.2,0-.3-.13-.3-.39,0-.63.1-1.93.3-3.91.24-2.07.56-4.84.95-8.32.19-1.64.34-3.08.46-4.32.15-1.56.22-2.53.22-2.91,0-.16-.07-.24-.22-.24-.33,0-.95.13-1.88.4-.07.02-.15-.02-.21-.11-.02-.04-.05-.13-.08-.29-.04-.09,0-.16.11-.19,2.04-.72,3.47-1.08,4.28-1.08.22,0,.31.11.28.32-.3,1.85-.64,4.34-1.03,7.46-.47,3.82-.8,6.74-.99,8.78-.21,2.19-.32,3.29-.32,3.31,0,.19.08.28.25.28.48,0,1.07-.22,1.77-.65.08-.04.14-.04.18,0,.03.05.07.13.14.27Z"/>
        <path class="cls-1" d="M141.37,184.77c.04.06.02.13-.06.21-.31.31-.89.66-1.77,1.04-.87.38-1.5.57-1.88.57-.18,0-.26-.09-.26-.28,0-1.22.12-2.6.35-4.13.03-.21,0-.31-.07-.31-.07,0-.13.09-.2.25-.4,1.02-1,1.96-1.79,2.82-.56.6-.94.98-1.16,1.14-.45.33-.92.5-1.43.5-.81,0-1.46-.42-1.96-1.25s-.75-1.98-.75-3.42c0-2.33.8-4.38,2.42-6.15,1.3-1.43,2.82-2.14,4.56-2.14.62,0,1.21.08,1.77.24.21.06.36,0,.43-.17.14-.36.22-.68.25-.97.03-.13.11-.2.24-.2h.96c.06,0,.1,0,.12.01.03.02.02.07-.01.15-.37.94-.65,1.92-.85,2.94-.31,1.71-.55,3.21-.71,4.52-.25,2.07-.38,3.7-.38,4.88,0,.16.06.23.18.22.41-.02.96-.25,1.64-.71.07-.04.13-.04.18,0,.07.07.13.15.17.22ZM138.74,174.77c.03-.18-.07-.3-.31-.36-.27-.07-.61-.11-1.03-.11-1.04,0-2.08.52-3.13,1.56-1.39,1.39-2.09,3.31-2.09,5.76,0,1.1.19,1.95.56,2.54.31.53.71.79,1.18.79s1.01-.28,1.57-.83c.56-.55,1.04-1.28,1.45-2.18.46-1,.91-2.56,1.35-4.66.22-1.1.37-1.94.45-2.52Z"/>
        <path class="cls-1" d="M153.78,178.13c0,2.31-.83,4.37-2.49,6.18-1.36,1.5-2.91,2.25-4.63,2.25-.67,0-1.28-.15-1.82-.46-.13-.06-.24-.04-.32.07-.28.37-.51.82-.71,1.34-.04.09-.12.14-.24.14h-.25c-.12,0-.17-.06-.14-.17.22-.83.5-2.29.82-4.37.58-3.58,1.01-6.62,1.31-9.11.12-.94.27-2.38.46-4.33.16-1.56.24-2.54.24-2.94,0-.16-.08-.24-.24-.24-.29,0-.91.13-1.88.4-.1.03-.17-.01-.2-.13s-.06-.2-.09-.24c-.02-.11.02-.19.12-.22,1.19-.46,2.61-.83,4.27-1.08.08,0,.15.02.21.1.06.07.08.16.06.25,0,.01-.35,2.5-1.04,7.46-.21,1.35-.47,3.04-.78,5.05-.03.19-.01.28.04.28.04,0,.09-.08.17-.25.43-1.09,1.01-2.03,1.71-2.8,1.13-1.23,2.11-1.85,2.95-1.85,1.64,0,2.46,1.56,2.46,4.67ZM151.86,178.46c0-2.1-.59-3.15-1.77-3.15-.46,0-.96.26-1.49.78-.53.52-.99,1.21-1.38,2.07-.67,1.47-1.14,3.01-1.4,4.62-.14.86-.22,1.75-.25,2.67,0,.14.06.23.2.26.27.07.56.11.86.11,1.08,0,2.15-.53,3.21-1.6,1.34-1.34,2.02-3.27,2.02-5.77Z"/>
        <path class="cls-1" d="M166.65,178.36c0,1.3-.33,2.57-1,3.83-.59,1.13-1.37,2.1-2.34,2.91-1.2,1-2.35,1.5-3.42,1.5-1.21,0-2.16-.47-2.87-1.42-.59-.8-.89-1.9-.89-3.31,0-2.25.94-4.35,2.82-6.29,1.36-1.41,2.74-2.11,4.13-2.11,1.17,0,2.05.42,2.66,1.26s.9,2.05.9,3.64ZM164.59,178.65c0-1.56-.23-2.64-.68-3.25-.43-.57-1.01-.85-1.74-.85s-1.4.28-2.02.85c-.67.61-1.19,1.52-1.57,2.71-.34,1.08-.51,2.22-.51,3.39,0,1.34.2,2.33.6,2.96.46.72,1.14,1.08,2.03,1.08.78,0,1.46-.29,2.05-.86,1.23-1.2,1.85-3.21,1.85-6.04Z"/>
        <path class="cls-1" d="M178.55,174.3c0,.27-.12.52-.36.77-.27.27-.59.4-.95.4-.44,0-.96-.06-1.56-.18-.15-.03-.27,0-.38.08-.6.52-1.21,1.3-1.82,2.34-.84,1.44-1.4,2.87-1.65,4.28-.15.78-.35,2.17-.6,4.16-.03.19-.13.28-.31.28h-1.29c-.18,0-.25-.08-.22-.25.21-1.16.54-3.08.97-5.76.3-2.19.45-3.83.45-4.92,0-.18-.05-.25-.14-.24-.4.15-.9.48-1.5.98-.07.06-.13.07-.18.03-.05-.04-.11-.1-.2-.19-.04-.06-.03-.12.03-.18.83-.86,1.79-1.56,2.88-2.1.38-.2.64-.29.79-.29.14,0,.21.09.21.26,0,.25-.01.49-.04.71-.14,1.63-.29,2.99-.45,4.07-.05.25-.06.39-.03.4.05-.04.11-.15.2-.35.49-1.15,1.24-2.3,2.25-3.45.98-1.12,1.92-1.68,2.8-1.68.73,0,1.1.28,1.1.83Z"/>
        <path class="cls-1" d="M189.83,184.77c.04.06.02.13-.06.21-.31.31-.89.66-1.77,1.04-.87.38-1.5.57-1.88.57-.18,0-.26-.09-.26-.28,0-1.22.12-2.6.35-4.13.03-.21,0-.31-.07-.31-.07,0-.13.09-.2.25-.4,1.02-1,1.96-1.79,2.82-.56.6-.94.98-1.16,1.14-.45.33-.92.5-1.43.5-.81,0-1.46-.42-1.96-1.25s-.75-1.98-.75-3.42c0-2.33.8-4.38,2.42-6.15,1.3-1.43,2.82-2.14,4.56-2.14.62,0,1.21.08,1.77.24.21.06.36,0,.43-.17.14-.36.22-.68.25-.97.03-.13.11-.2.24-.2h.96c.06,0,.1,0,.12.01.03.02.02.07-.01.15-.37.94-.65,1.92-.85,2.94-.31,1.71-.55,3.21-.71,4.52-.25,2.07-.38,3.7-.38,4.88,0,.16.06.23.18.22.41-.02.96-.25,1.64-.71.07-.04.13-.04.18,0,.07.07.13.15.17.22ZM187.21,174.77c.03-.18-.07-.3-.31-.36-.27-.07-.61-.11-1.03-.11-1.04,0-2.08.52-3.13,1.56-1.39,1.39-2.09,3.31-2.09,5.76,0,1.1.19,1.95.56,2.54.31.53.71.79,1.18.79s1.01-.28,1.57-.83c.56-.55,1.04-1.28,1.45-2.18.46-1,.91-2.56,1.35-4.66.22-1.1.37-1.94.45-2.52Z"/>
        <path class="cls-1" d="M200.69,174.82c0,.23-.09.43-.28.61s-.41.26-.68.26c-.55,0-1.06-.25-1.54-.77-.13-.14-.27-.21-.43-.21-.72,0-1.47.36-2.24,1.08-1.16,1.08-1.74,2.96-1.74,5.65,0,1.04.21,1.87.61,2.5.44.67,1.03,1,1.78,1,1.12,0,2.18-.41,3.19-1.24.06-.06.12-.04.19.03.05.06.1.12.15.21.04.06.03.13-.03.19-.62.68-1.37,1.24-2.25,1.7-.93.48-1.76.72-2.5.72-.86,0-1.59-.41-2.17-1.22-.61-.86-.92-2.01-.92-3.45,0-2.68,1.08-4.93,3.23-6.75,1.28-1.08,2.56-1.63,3.84-1.63.55,0,.98.13,1.31.39.32.26.49.56.49.92Z"/>
        <path class="cls-1" d="M207.43,169.65c0,.91-.4,1.36-1.2,1.36-.59,0-.89-.39-.89-1.17,0-.37.11-.68.34-.93.23-.25.5-.37.83-.37.61,0,.92.37.92,1.11ZM208.17,185.01c.02.07.01.12-.03.14-.49.35-1.17.68-2.03.99-.86.3-1.56.46-2.1.46-.19,0-.29-.1-.29-.31,0-.83.15-2.36.46-4.59.49-3.62.74-5.71.74-6.27,0-.19-.06-.26-.17-.19-.69.38-1.28.77-1.77,1.17-.07.06-.14.06-.19,0-.05-.04-.12-.1-.21-.2-.04-.06-.03-.12.03-.18.73-.72,1.49-1.32,2.28-1.79.87-.51,1.43-.77,1.68-.77.13,0,.19.06.19.19,0,.61-.13,2.04-.39,4.28-.14.92-.32,2.22-.54,3.89-.19,1.5-.29,2.59-.29,3.25,0,.19.09.28.27.28.64,0,1.33-.23,2.07-.68.07-.05.13-.04.18.03.05.07.09.16.11.29Z"/>
        <path class="cls-1" d="M220.45,169.28c-.06.1-.25.24-.57.42-.83.52-2.21,1.3-4.13,2.34-.33.17-.56.2-.71.1-.14-.1-.05-.28.26-.54.59-.47,1.6-1.27,3.02-2.39.14-.11.26-.16.36-.15.37.06.93.1,1.68.1.03,0,.06.02.08.06.03.04.03.07,0,.09ZM220.63,178.36c0,1.3-.33,2.57-1,3.83-.59,1.13-1.37,2.1-2.34,2.91-1.2,1-2.35,1.5-3.42,1.5-1.21,0-2.16-.47-2.87-1.42-.59-.8-.89-1.9-.89-3.31,0-2.25.94-4.35,2.82-6.29,1.36-1.41,2.74-2.11,4.13-2.11,1.17,0,2.05.42,2.66,1.26.6.84.9,2.05.9,3.64ZM218.57,178.65c0-1.56-.23-2.64-.68-3.25-.43-.57-1.01-.85-1.74-.85s-1.4.28-2.02.85c-.67.61-1.19,1.52-1.57,2.71-.34,1.08-.51,2.22-.51,3.39,0,1.34.2,2.33.6,2.96.46.72,1.14,1.08,2.03,1.08.78,0,1.46-.29,2.05-.86,1.23-1.2,1.85-3.21,1.85-6.04Z"/>
        <path class="cls-1" d="M234,184.95c.04.08.03.14-.03.17-.45.4-1.07.75-1.86,1.04-.76.29-1.42.43-1.99.43-.19,0-.28-.11-.28-.33,0-.51.17-1.83.51-3.96.38-2.38.57-4.07.57-5.08,0-1.42-.28-2.13-.83-2.13-.68,0-1.56.87-2.61,2.61-.68,1.12-1.24,2.52-1.65,4.19-.41,1.6-.73,3.02-.97,4.26-.04.19-.14.28-.31.28h-.92c-.18,0-.25-.08-.22-.25.21-1.16.54-3.08.97-5.76.3-2.19.45-3.83.45-4.92,0-.19-.06-.25-.17-.21-.47.21-.97.53-1.47.95-.07.06-.14.06-.21,0-.04-.03-.09-.09-.17-.17-.04-.06-.03-.12.03-.18.33-.35.87-.79,1.61-1.31.71-.5,1.25-.83,1.6-.97.19-.07.37-.11.52-.11.12,0,.17.17.15.52-.17,2-.33,3.49-.49,4.45-.03.17-.04.29-.04.36,0,.09.03.11.07.07.04-.04.09-.13.17-.29.68-1.46,1.41-2.61,2.2-3.48.99-1.1,1.84-1.66,2.53-1.66,1.07,0,1.6.92,1.6,2.77,0,.93-.22,2.79-.65,5.58-.21,1.34-.32,2.46-.32,3.37,0,.23.09.33.26.28.68-.15,1.23-.39,1.67-.71.07-.06.13-.05.18.03.02.02.06.08.11.18Z"/>
        <path class="cls-1" d="M248.77,174.06c-.04.06-.11.18-.22.37-.08.15-.23.22-.43.22h-2.77c-.11,0-.18.05-.19.14-.33,1.87-.72,4.41-1.2,7.61-.04.35-.06.78-.06,1.28,0,.57.06.95.17,1.14.19.31.42.46.71.46.57,0,1.32-.38,2.23-1.14.11-.11.24-.21.37-.31.04-.04.08-.03.14.03.09.09.16.18.19.25.02.02.03.04.04.07,0,.19-.46.62-1.38,1.26-1.12.8-2.19,1.2-3.21,1.2-.3,0-.53-.09-.7-.28-.26-.31-.39-.83-.39-1.57,0-.87.06-1.71.17-2.5.26-1.83.67-4.32,1.22-7.47.02-.11-.02-.17-.11-.17h-1.31c-.2,0-.28-.06-.27-.17.03-.11.06-.28.11-.52.05-.11.12-.17.24-.17h1.31c.13,0,.2-.03.22-.08.03-.1.13-.65.32-1.66.06-.29.22-.47.49-.54.22-.06.59-.14,1.11-.22.09-.02.16,0,.22.05s.06.12.04.2c-.2.57-.33,1.21-.4,1.9-.02.23.01.35.1.35.1,0,.62,0,1.56-.01.94,0,1.45-.01,1.54-.01.15,0,.19.09.14.28Z"/>
        <path class="cls-1" d="M259.82,174.3c0,.27-.12.52-.36.77-.27.27-.59.4-.95.4-.44,0-.96-.06-1.56-.18-.15-.03-.27,0-.38.08-.6.52-1.21,1.3-1.82,2.34-.84,1.44-1.4,2.87-1.65,4.28-.15.78-.35,2.17-.6,4.16-.03.19-.13.28-.31.28h-1.29c-.18,0-.25-.08-.22-.25.21-1.16.54-3.08.97-5.76.3-2.19.45-3.83.45-4.92,0-.18-.05-.25-.14-.24-.4.15-.9.48-1.5.98-.07.06-.13.07-.18.03-.05-.04-.11-.1-.2-.19-.04-.06-.03-.12.03-.18.83-.86,1.79-1.56,2.88-2.1.38-.2.64-.29.79-.29.14,0,.21.09.21.26,0,.25-.01.49-.04.71-.14,1.63-.29,2.99-.45,4.07-.05.25-.06.39-.03.4.05-.04.11-.15.2-.35.49-1.15,1.24-2.3,2.25-3.45.98-1.12,1.92-1.68,2.8-1.68.73,0,1.1.28,1.1.83Z"/>
        <path class="cls-1" d="M271.1,184.77c.04.06.02.13-.06.21-.31.31-.89.66-1.77,1.04-.87.38-1.5.57-1.88.57-.18,0-.26-.09-.26-.28,0-1.22.12-2.6.35-4.13.03-.21,0-.31-.07-.31-.07,0-.13.09-.2.25-.4,1.02-1,1.96-1.79,2.82-.56.6-.94.98-1.16,1.14-.45.33-.92.5-1.43.5-.81,0-1.46-.42-1.96-1.25s-.75-1.98-.75-3.42c0-2.33.8-4.38,2.42-6.15,1.3-1.43,2.82-2.14,4.56-2.14.62,0,1.21.08,1.77.24.21.06.36,0,.43-.17.14-.36.22-.68.25-.97.03-.13.11-.2.24-.2h.96c.06,0,.1,0,.12.01.03.02.02.07-.01.15-.37.94-.65,1.92-.85,2.94-.31,1.71-.55,3.21-.71,4.52-.25,2.07-.38,3.7-.38,4.88,0,.16.06.23.18.22.41-.02.96-.25,1.64-.71.07-.04.13-.04.18,0,.07.07.13.15.17.22ZM268.48,174.77c.03-.18-.07-.3-.31-.36-.27-.07-.61-.11-1.03-.11-1.04,0-2.08.52-3.13,1.56-1.39,1.39-2.09,3.31-2.09,5.76,0,1.1.19,1.95.56,2.54.31.53.71.79,1.18.79s1.01-.28,1.57-.83c.56-.55,1.04-1.28,1.45-2.18.46-1,.91-2.56,1.35-4.66.22-1.1.37-1.94.45-2.52Z"/>
        <path class="cls-1" d="M284.34,165.57c-.3,1.87-.66,4.34-1.08,7.43-.36,2.65-.66,5.03-.91,7.15-.27,2.32-.4,3.95-.4,4.88,0,.15.06.22.19.22.36,0,.92-.25,1.68-.74.07-.05.13-.05.17,0,.06.06.12.12.15.19.03.05,0,.11-.06.2-.6.69-1.75,1.25-3.45,1.65-.31.07-.48.05-.49-.08-.01-.11,0-.64.06-1.57.04-.79.13-1.7.29-2.73.02-.12.02-.21.01-.27,0-.05-.03-.05-.06-.01-.03.04-.06.11-.11.22-.3.79-.89,1.71-1.79,2.75-.97,1.14-1.86,1.71-2.7,1.71-.77,0-1.41-.36-1.92-1.07-.58-.81-.88-1.93-.88-3.37,0-2.49.83-4.54,2.5-6.13,1.49-1.4,3-2.1,4.54-2.1.43,0,.74.03.9.09.2.06.32.03.35-.11.16-.96.33-2.37.52-4.24.13-1.36.19-2.33.19-2.91,0-.16-.07-.24-.22-.24-.48,0-1.17.14-2.06.43-.08.03-.14,0-.17-.09-.03-.08-.06-.19-.11-.32-.02-.06.03-.12.14-.17.38-.17,1.11-.39,2.18-.68,1.13-.3,1.88-.46,2.24-.46.22,0,.31.12.28.35ZM281.18,175.01c0-.12-.07-.21-.22-.27-.15-.06-.43-.08-.83-.08-1.57,0-2.85.84-3.86,2.53-.86,1.45-1.29,3-1.29,4.65,0,.99.17,1.77.52,2.32.31.5.71.75,1.19.75s1.04-.27,1.61-.79c.61-.56,1.12-1.28,1.52-2.17.38-.83.76-2.38,1.14-4.66.1-.59.18-1.35.24-2.28Z"/>
        <path class="cls-1" d="M290.81,169.65c0,.91-.4,1.36-1.2,1.36-.59,0-.89-.39-.89-1.17,0-.37.11-.68.34-.93.23-.25.5-.37.83-.37.61,0,.92.37.92,1.11ZM291.54,185.01c.02.07.01.12-.03.14-.49.35-1.17.68-2.03.99-.86.3-1.56.46-2.1.46-.19,0-.29-.1-.29-.31,0-.83.15-2.36.46-4.59.49-3.62.74-5.71.74-6.27,0-.19-.06-.26-.17-.19-.69.38-1.28.77-1.77,1.17-.07.06-.14.06-.19,0-.05-.04-.12-.1-.21-.2-.04-.06-.03-.12.03-.18.73-.72,1.49-1.32,2.28-1.79.87-.51,1.43-.77,1.68-.77.13,0,.19.06.19.19,0,.61-.13,2.04-.39,4.28-.14.92-.32,2.22-.54,3.89-.19,1.5-.29,2.59-.29,3.25,0,.19.09.28.27.28.64,0,1.33-.23,2.07-.68.07-.05.13-.04.18.03.05.07.09.16.11.29Z"/>
        <path class="cls-1" d="M302.47,174.82c0,.23-.09.43-.28.61s-.41.26-.68.26c-.55,0-1.06-.25-1.54-.77-.13-.14-.27-.21-.43-.21-.72,0-1.47.36-2.24,1.08-1.16,1.08-1.74,2.96-1.74,5.65,0,1.04.21,1.87.61,2.5.44.67,1.03,1,1.78,1,1.12,0,2.18-.41,3.19-1.24.06-.06.12-.04.19.03.05.06.1.12.15.21.04.06.03.13-.03.19-.62.68-1.37,1.24-2.25,1.7-.93.48-1.76.72-2.5.72-.86,0-1.59-.41-2.17-1.22-.61-.86-.92-2.01-.92-3.45,0-2.68,1.08-4.93,3.23-6.75,1.28-1.08,2.56-1.63,3.84-1.63.55,0,.98.13,1.31.39.32.26.49.56.49.92Z"/>
        <path class="cls-1" d="M309.21,169.65c0,.91-.4,1.36-1.2,1.36-.59,0-.89-.39-.89-1.17,0-.37.11-.68.34-.93.23-.25.5-.37.83-.37.61,0,.92.37.92,1.11ZM309.94,185.01c.02.07.01.12-.03.14-.49.35-1.17.68-2.03.99-.86.3-1.56.46-2.1.46-.19,0-.29-.1-.29-.31,0-.83.15-2.36.46-4.59.49-3.62.74-5.71.74-6.27,0-.19-.06-.26-.17-.19-.69.38-1.28.77-1.77,1.17-.07.06-.14.06-.19,0-.05-.04-.12-.1-.21-.2-.04-.06-.03-.12.03-.18.73-.72,1.49-1.32,2.28-1.79.87-.51,1.43-.77,1.68-.77.13,0,.19.06.19.19,0,.61-.13,2.04-.39,4.28-.14.92-.32,2.22-.54,3.89-.19,1.5-.29,2.59-.29,3.25,0,.19.09.28.27.28.64,0,1.33-.23,2.07-.68.07-.05.13-.04.18.03.05.07.09.16.11.29Z"/>
        <path class="cls-1" d="M322.41,178.36c0,1.3-.33,2.57-1,3.83-.59,1.13-1.37,2.1-2.34,2.91-1.2,1-2.35,1.5-3.42,1.5-1.21,0-2.16-.47-2.87-1.42-.59-.8-.89-1.9-.89-3.31,0-2.25.94-4.35,2.82-6.29,1.36-1.41,2.74-2.11,4.13-2.11,1.17,0,2.05.42,2.66,1.26s.9,2.05.9,3.64ZM320.35,178.65c0-1.56-.23-2.64-.68-3.25-.43-.57-1.01-.85-1.74-.85s-1.4.28-2.02.85c-.67.61-1.19,1.52-1.57,2.71-.34,1.08-.51,2.22-.51,3.39,0,1.34.2,2.33.6,2.96.46.72,1.14,1.08,2.03,1.08.78,0,1.46-.29,2.05-.86,1.23-1.2,1.85-3.21,1.85-6.04Z"/>
        <path class="cls-1" d="M335.78,184.95c.04.08.03.14-.03.17-.45.4-1.07.75-1.86,1.04-.76.29-1.42.43-1.99.43-.19,0-.28-.11-.28-.33,0-.51.17-1.83.51-3.96.38-2.38.57-4.07.57-5.08,0-1.42-.28-2.13-.83-2.13-.68,0-1.56.87-2.61,2.61-.68,1.12-1.24,2.52-1.65,4.19-.41,1.6-.73,3.02-.97,4.26-.04.19-.14.28-.31.28h-.92c-.18,0-.25-.08-.22-.25.21-1.16.54-3.08.97-5.76.3-2.19.45-3.83.45-4.92,0-.19-.06-.25-.17-.21-.47.21-.97.53-1.47.95-.07.06-.14.06-.21,0-.04-.03-.09-.09-.17-.17-.04-.06-.03-.12.03-.18.33-.35.87-.79,1.61-1.31.71-.5,1.25-.83,1.6-.97.19-.07.37-.11.52-.11.12,0,.17.17.15.52-.17,2-.33,3.49-.49,4.45-.03.17-.04.29-.04.36,0,.09.03.11.07.07.04-.04.09-.13.17-.29.68-1.46,1.41-2.61,2.2-3.48.99-1.1,1.84-1.66,2.53-1.66,1.07,0,1.6.92,1.6,2.77,0,.93-.22,2.79-.65,5.58-.21,1.34-.32,2.46-.32,3.37,0,.23.09.33.26.28.68-.15,1.23-.39,1.67-.71.07-.06.13-.05.18.03.02.02.06.08.11.18Z"/>
        <path class="cls-1" d="M348.67,184.77c.04.06.02.13-.06.21-.31.31-.89.66-1.77,1.04-.87.38-1.5.57-1.88.57-.18,0-.26-.09-.26-.28,0-1.22.12-2.6.35-4.13.03-.21,0-.31-.07-.31-.07,0-.13.09-.2.25-.4,1.02-1,1.96-1.79,2.82-.56.6-.94.98-1.16,1.14-.45.33-.92.5-1.43.5-.81,0-1.46-.42-1.96-1.25s-.75-1.98-.75-3.42c0-2.33.8-4.38,2.42-6.15,1.3-1.43,2.82-2.14,4.56-2.14.62,0,1.21.08,1.77.24.21.06.36,0,.43-.17.14-.36.22-.68.25-.97.03-.13.11-.2.24-.2h.96c.06,0,.1,0,.12.01.03.02.02.07-.01.15-.37.94-.65,1.92-.85,2.94-.31,1.71-.55,3.21-.71,4.52-.25,2.07-.38,3.7-.38,4.88,0,.16.06.23.18.22.41-.02.96-.25,1.64-.71.07-.04.13-.04.18,0,.07.07.13.15.17.22ZM346.04,174.77c.03-.18-.07-.3-.31-.36-.27-.07-.61-.11-1.03-.11-1.04,0-2.08.52-3.13,1.56-1.39,1.39-2.09,3.31-2.09,5.76,0,1.1.19,1.95.56,2.54.31.53.71.79,1.18.79s1.01-.28,1.57-.83c.56-.55,1.04-1.28,1.45-2.18.46-1,.91-2.56,1.35-4.66.22-1.1.37-1.94.45-2.52Z"/>
        <path class="cls-1" d="M355.64,184.98c.04.08.03.14-.03.17-.46.34-1.16.68-2.09,1-.85.3-1.45.45-1.8.45-.2,0-.3-.13-.3-.39,0-.63.1-1.93.3-3.91.24-2.07.56-4.84.95-8.32.19-1.64.34-3.08.46-4.32.15-1.56.22-2.53.22-2.91,0-.16-.07-.24-.22-.24-.33,0-.95.13-1.88.4-.07.02-.15-.02-.21-.11-.02-.04-.05-.13-.08-.29-.04-.09,0-.16.11-.19,2.04-.72,3.47-1.08,4.28-1.08.22,0,.31.11.28.32-.3,1.85-.64,4.34-1.03,7.46-.47,3.82-.8,6.74-.99,8.78-.21,2.19-.32,3.29-.32,3.31,0,.19.08.28.25.28.48,0,1.07-.22,1.77-.65.08-.04.14-.04.18,0,.03.05.07.13.14.27Z"/>
        <path class="cls-1" d="M372.24,174.82c0,.23-.09.43-.28.61s-.41.26-.68.26c-.55,0-1.06-.25-1.54-.77-.13-.14-.27-.21-.43-.21-.72,0-1.47.36-2.24,1.08-1.16,1.08-1.74,2.96-1.74,5.65,0,1.04.21,1.87.61,2.5.44.67,1.03,1,1.78,1,1.12,0,2.18-.41,3.19-1.24.06-.06.12-.04.19.03.05.06.1.12.15.21.04.06.03.13-.03.19-.62.68-1.37,1.24-2.25,1.7-.93.48-1.76.72-2.5.72-.86,0-1.59-.41-2.17-1.22-.61-.86-.92-2.01-.92-3.45,0-2.68,1.08-4.93,3.23-6.75,1.28-1.08,2.56-1.63,3.84-1.63.55,0,.98.13,1.31.39.32.26.49.56.49.92Z"/>
        <path class="cls-1" d="M384.13,178.36c0,1.3-.33,2.57-1,3.83-.59,1.13-1.37,2.1-2.34,2.91-1.2,1-2.35,1.5-3.42,1.5-1.21,0-2.16-.47-2.87-1.42-.59-.8-.89-1.9-.89-3.31,0-2.25.94-4.35,2.82-6.29,1.36-1.41,2.74-2.11,4.13-2.11,1.17,0,2.05.42,2.66,1.26s.9,2.05.9,3.64ZM382.07,178.65c0-1.56-.23-2.64-.68-3.25-.43-.57-1.01-.85-1.74-.85s-1.4.28-2.02.85c-.67.61-1.19,1.52-1.57,2.71-.34,1.08-.51,2.22-.51,3.39,0,1.34.2,2.33.6,2.96.46.72,1.14,1.08,2.03,1.08.78,0,1.46-.29,2.05-.86,1.23-1.2,1.85-3.21,1.85-6.04Z"/>
        <path class="cls-1" d="M397.5,184.95c.04.08.03.14-.03.17-.45.4-1.07.75-1.86,1.04-.76.29-1.42.43-1.99.43-.19,0-.28-.11-.28-.33,0-.51.17-1.83.51-3.96.38-2.38.57-4.07.57-5.08,0-1.42-.28-2.13-.83-2.13-.68,0-1.56.87-2.61,2.61-.68,1.12-1.24,2.52-1.65,4.19-.41,1.6-.73,3.02-.97,4.26-.04.19-.14.28-.31.28h-.92c-.18,0-.25-.08-.22-.25.21-1.16.54-3.08.97-5.76.3-2.19.45-3.83.45-4.92,0-.19-.06-.25-.17-.21-.47.21-.97.53-1.47.95-.07.06-.14.06-.21,0-.04-.03-.09-.09-.17-.17-.04-.06-.03-.12.03-.18.33-.35.87-.79,1.61-1.31.71-.5,1.25-.83,1.6-.97.19-.07.37-.11.52-.11.12,0,.17.17.15.52-.17,2-.33,3.49-.49,4.45-.03.17-.04.29-.04.36,0,.09.03.11.07.07.04-.04.09-.13.17-.29.68-1.46,1.41-2.61,2.2-3.48.99-1.1,1.84-1.66,2.53-1.66,1.07,0,1.6.92,1.6,2.77,0,.93-.22,2.79-.65,5.58-.21,1.34-.32,2.46-.32,3.37,0,.23.09.33.26.28.68-.15,1.23-.39,1.67-.71.07-.06.13-.05.18.03.02.02.06.08.11.18Z"/>
        <path class="cls-1" d="M414.26,174.3c0,.27-.12.52-.36.77-.27.27-.59.4-.95.4-.44,0-.96-.06-1.56-.18-.15-.03-.27,0-.38.08-.6.52-1.21,1.3-1.82,2.34-.84,1.44-1.4,2.87-1.65,4.28-.15.78-.35,2.17-.6,4.16-.03.19-.13.28-.31.28h-1.29c-.18,0-.25-.08-.22-.25.21-1.16.54-3.08.97-5.76.3-2.19.45-3.83.45-4.92,0-.18-.05-.25-.14-.24-.4.15-.9.48-1.5.98-.07.06-.13.07-.18.03-.05-.04-.11-.1-.2-.19-.04-.06-.03-.12.03-.18.83-.86,1.79-1.56,2.88-2.1.38-.2.64-.29.79-.29.14,0,.21.09.21.26,0,.25-.01.49-.04.71-.14,1.63-.29,2.99-.45,4.07-.05.25-.06.39-.03.4.05-.04.11-.15.2-.35.49-1.15,1.24-2.3,2.25-3.45.98-1.12,1.92-1.68,2.8-1.68.73,0,1.1.28,1.1.83Z"/>
        <path class="cls-1" d="M423.86,174.86c0,.12-.13.29-.4.5-1.73,1.44-3.94,2.84-6.61,4.22-.16.06-.26.18-.29.35-.06.27-.08.69-.08,1.25,0,1.21.28,2.15.85,2.81.5.58,1.12.86,1.87.86,1.18,0,2.35-.52,3.53-1.56.07-.07.13-.07.2-.03.03.02.08.09.17.2.04.08.04.15,0,.19-.35.51-.88,1.01-1.59,1.49-1.41.97-2.7,1.45-3.88,1.45-.81,0-1.48-.45-2.03-1.36-.6-1-.9-2.36-.9-4.08,0-2.3.86-4.29,2.58-5.98,1.17-1.14,2.22-1.71,3.15-1.71,1.32,0,2.05.48,2.18,1.43.03.15.12.22.27.22.04,0,.17-.11.38-.33.21-.22.34-.32.38-.3.16.06.24.18.24.37ZM420.93,176.2c.02-.38-.11-.71-.38-1-.27-.29-.58-.43-.95-.43-.68,0-1.24.23-1.69.7-.54.53-.92,1.61-1.14,3.24-.02.12,0,.19.03.21.03,0,.08,0,.17-.04,1.46-.69,2.74-1.47,3.86-2.34.05-.03.08-.14.1-.33Z"/>
        <path class="cls-1" d="M435.48,173.95c0,.68-.07,1.23-.21,1.63,0,.06-.02.11-.04.16-.02.05-.1.09-.26.12-.34.02-.69.04-1.03.06-.52.05-.77.16-.74.35.06.34.08.76.08,1.25,0,.56-.13,1.2-.41,1.9s-.59,1.23-.95,1.57c-.87.82-1.8,1.26-2.8,1.34-.31.02-.56.1-.74.24-.34.27-.52.63-.53,1.07-.02.43.24.86.79,1.26.23.18.78.43,1.64.75,1.72.65,2.84,1.22,3.35,1.72.51.5.76,1.1.75,1.8,0,.98-.66,1.99-1.95,3-1.25.98-2.88,1.48-4.88,1.48-1.39,0-2.53-.32-3.42-.96-.83-.58-1.23-1.34-1.22-2.27.02-.89.6-1.72,1.74-2.49.76-.52,1.66-.95,2.71-1.29.13-.05.14-.12.03-.21-.64-.46-.95-1.14-.93-2.02,0-.75.43-1.41,1.28-1.99.1-.06.07-.12-.1-.18-.52-.15-1.01-.51-1.48-1.08-.47-.57-.7-1.39-.69-2.46.02-1.47.56-2.73,1.63-3.78.95-.94,2.01-1.4,3.19-1.4.7,0,1.25.12,1.65.35.29.21.54.45.77.74.07.07.22.11.43.11.85,0,1.38-.08,1.58-.25.18-.15.33-.35.46-.6.03-.06.08-.07.17-.06.08.02.13.07.13.14ZM431.63,177.91c.03-.91-.06-1.65-.28-2.23-.31-.85-.89-1.28-1.74-1.28-.61,0-1.13.22-1.57.65-.54.54-.82,1.54-.85,3.02-.03,1.22.07,2.08.3,2.59.31.67.79,1,1.46,1,.75,0,1.36-.26,1.82-.79.54-.63.82-1.62.85-2.96ZM432.68,189.64c-.03-.85-.59-1.52-1.7-1.99-.91-.39-1.76-.58-2.56-.58-1.05,0-1.95.32-2.71.96-.84.71-1.27,1.43-1.29,2.14-.02.73.28,1.35.89,1.84.69.56,1.69.83,3.02.83s2.27-.31,3.03-.93c.91-.74,1.35-1.5,1.32-2.27Z"/>
        <path class="cls-1" d="M448.62,184.95c.05.06.03.12-.06.19-.37.33-.94.64-1.71.95-.84.33-1.54.5-2.1.5-.21,0-.32-.09-.32-.28,0-.31.04-.89.14-1.74.13-1.12.28-2.3.46-3.54.02-.13.02-.22.01-.28-.01-.04-.03-.05-.06-.01-.04.04-.08.12-.13.24-.56,1.39-1.36,2.67-2.37,3.85-1.02,1.17-1.89,1.76-2.62,1.76-1.06,0-1.59-.92-1.59-2.75,0-.94.22-2.8.65-5.59.2-1.34.31-2.46.31-3.38,0-.18-.06-.26-.17-.26-.53,0-1.12.24-1.77.71-.06.06-.1.06-.14,0-.03-.04-.07-.11-.14-.22-.04-.06-.03-.11.03-.14.44-.41,1.05-.76,1.85-1.06.77-.29,1.43-.43,1.99-.43.2,0,.29.14.29.43,0,.59-.17,1.88-.52,3.86-.42,2.44-.62,4.32-.62,5.65,0,1.05.25,1.57.74,1.57.78,0,1.73-.9,2.85-2.71.91-1.46,1.49-2.86,1.74-4.19.17-.91.37-2.27.6-4.07.02-.15.1-.22.25-.22h1.39c.14,0,.2.06.18.19-.25,1.3-.6,3.36-1.06,6.18-.25,1.84-.37,3.55-.37,5.13,0,.13.06.19.18.19.41,0,1-.25,1.77-.74.07-.05.13-.05.17,0,.02.03.04.06.07.1.03.04.05.07.07.11Z"/>
        <path class="cls-1" d="M458.18,174.82c0,.19-.09.38-.26.55s-.36.26-.55.26c-.48,0-.93-.38-1.34-1.14-.08-.15-.22-.22-.4-.22-.55,0-1.02.18-1.43.53s-.61.78-.61,1.29c0,.88.35,1.63,1.06,2.24.63.56,1.21,1.05,1.74,1.49,1.13.95,1.69,2.1,1.69,3.45,0,1-.4,1.82-1.19,2.45-.74.59-1.65.88-2.73.88s-1.86-.2-2.5-.6c-.59-.37-.89-.8-.89-1.31,0-.57.3-.85.89-.85.45,0,.91.6,1.39,1.8.06.13.15.21.3.25.14.04.37.06.67.06.67,0,1.23-.21,1.7-.64.46-.43.69-.92.69-1.49,0-.97-.39-1.77-1.17-2.42-.38-.33-.92-.78-1.63-1.38-1.07-.86-1.6-1.88-1.6-3.05,0-.98.35-1.79,1.06-2.44.71-.64,1.57-.96,2.59-.96,1.68,0,2.52.42,2.52,1.25Z"/>
        <path class="cls-1" d="M468.02,174.06c-.04.06-.11.18-.22.37-.08.15-.23.22-.43.22h-2.77c-.11,0-.18.05-.19.14-.33,1.87-.72,4.41-1.2,7.61-.04.35-.06.78-.06,1.28,0,.57.06.95.17,1.14.19.31.42.46.71.46.57,0,1.32-.38,2.23-1.14.11-.11.24-.21.37-.31.04-.04.08-.03.14.03.09.09.16.18.19.25.02.02.03.04.04.07,0,.19-.46.62-1.38,1.26-1.12.8-2.19,1.2-3.21,1.2-.3,0-.53-.09-.7-.28-.26-.31-.39-.83-.39-1.57,0-.87.06-1.71.17-2.5.26-1.83.67-4.32,1.22-7.47.02-.11-.02-.17-.11-.17h-1.31c-.2,0-.28-.06-.27-.17.03-.11.06-.28.11-.52.05-.11.12-.17.24-.17h1.31c.13,0,.2-.03.22-.08.03-.1.13-.65.32-1.66.06-.29.22-.47.49-.54.22-.06.59-.14,1.11-.22.09-.02.16,0,.22.05s.06.12.04.2c-.2.57-.33,1.21-.4,1.9-.02.23.01.35.1.35.1,0,.62,0,1.56-.01.94,0,1.45-.01,1.54-.01.15,0,.19.09.14.28Z"/>
        <path class="cls-1" d="M479.78,178.36c0,1.3-.33,2.57-1,3.83-.59,1.13-1.37,2.1-2.34,2.91-1.2,1-2.35,1.5-3.42,1.5-1.21,0-2.16-.47-2.87-1.42-.59-.8-.89-1.9-.89-3.31,0-2.25.94-4.35,2.82-6.29,1.36-1.41,2.74-2.11,4.13-2.11,1.17,0,2.05.42,2.66,1.26s.9,2.05.9,3.64ZM477.72,178.65c0-1.56-.23-2.64-.68-3.25-.43-.57-1.01-.85-1.74-.85s-1.4.28-2.02.85c-.67.61-1.19,1.52-1.57,2.71-.34,1.08-.51,2.22-.51,3.39,0,1.34.2,2.33.6,2.96.46.72,1.14,1.08,2.03,1.08.78,0,1.46-.29,2.05-.86,1.23-1.2,1.85-3.21,1.85-6.04Z"/>
        <path class="cls-1" d="M498.6,184.77c.04.06.02.13-.06.21-.31.31-.89.66-1.77,1.04-.87.38-1.5.57-1.88.57-.18,0-.26-.09-.26-.28,0-1.22.12-2.6.35-4.13.03-.21,0-.31-.07-.31-.07,0-.13.09-.2.25-.4,1.02-1,1.96-1.79,2.82-.56.6-.94.98-1.16,1.14-.45.33-.92.5-1.43.5-.81,0-1.46-.42-1.96-1.25s-.75-1.98-.75-3.42c0-2.33.8-4.38,2.42-6.15,1.3-1.43,2.82-2.14,4.56-2.14.62,0,1.21.08,1.77.24.21.06.36,0,.43-.17.14-.36.22-.68.25-.97.03-.13.11-.2.24-.2h.96c.06,0,.1,0,.12.01.03.02.02.07-.01.15-.37.94-.65,1.92-.85,2.94-.31,1.71-.55,3.21-.71,4.52-.25,2.07-.38,3.7-.38,4.88,0,.16.06.23.18.22.41-.02.96-.25,1.64-.71.07-.04.13-.04.18,0,.07.07.13.15.17.22ZM495.97,174.77c.03-.18-.07-.3-.31-.36-.27-.07-.61-.11-1.03-.11-1.04,0-2.08.52-3.13,1.56-1.39,1.39-2.09,3.31-2.09,5.76,0,1.1.19,1.95.56,2.54.31.53.71.79,1.18.79s1.01-.28,1.57-.83c.56-.55,1.04-1.28,1.45-2.18.46-1,.91-2.56,1.35-4.66.22-1.1.37-1.94.45-2.52Z"/>
        <path class="cls-1" d="M523.13,184.95c.05.08.04.14-.03.17-.44.39-1.08.74-1.92,1.04-.79.29-1.45.43-1.99.43-.18,0-.27-.13-.25-.39.1-1.11.28-2.42.54-3.91.42-2.38.63-4.25.63-5.63,0-.86-.27-1.29-.82-1.29-.87,0-1.77.78-2.68,2.34-.71,1.22-1.25,2.59-1.6,4.09-.19.85-.42,2.3-.68,4.35-.02.19-.1.28-.25.28h-1.36c-.15,0-.21-.08-.18-.25.22-1.17.55-3.09.97-5.76.22-1.68.33-2.93.33-3.76s-.27-1.29-.82-1.29c-.87,0-1.76.78-2.67,2.34-.72,1.22-1.26,2.59-1.6,4.09-.2.85-.43,2.3-.68,4.35-.03.19-.12.28-.26.28h-1.36c-.14,0-.19-.08-.17-.25.21-1.16.53-3.08.96-5.76.29-2.06.45-3.7.49-4.92,0-.14-.05-.21-.17-.21-.23,0-.7.29-1.4.86-.14.11-.23.15-.28.11-.07-.06-.12-.13-.17-.19-.05-.07-.04-.15.03-.21.83-.83,1.71-1.48,2.64-1.96.52-.27.87-.4,1.06-.4.09,0,.14.13.14.4,0,.15-.02.41-.06.79-.07.83-.21,2.04-.4,3.64-.02.19-.03.31-.03.36,0,.05.03.04.07-.01.04-.06.09-.16.17-.32.55-1.25,1.23-2.35,2.04-3.3.93-1.07,1.81-1.6,2.66-1.6,1.02,0,1.53.92,1.53,2.77,0,.74-.05,1.42-.14,2.04-.04.26-.04.39-.01.4.05-.04.12-.17.21-.4.55-1.23,1.22-2.3,2.03-3.21.94-1.07,1.82-1.6,2.64-1.6,1.07,0,1.6.92,1.6,2.77,0,.93-.22,2.79-.65,5.58-.21,1.34-.32,2.46-.32,3.37,0,.25.09.35.27.31.58-.14,1.13-.39,1.65-.74.08-.05.15-.04.19.03.02.02.06.08.11.18Z"/>
        <path class="cls-1" d="M535.47,178.36c0,1.3-.33,2.57-1,3.83-.59,1.13-1.37,2.1-2.34,2.91-1.2,1-2.35,1.5-3.42,1.5-1.21,0-2.16-.47-2.87-1.42-.59-.8-.89-1.9-.89-3.31,0-2.25.94-4.35,2.82-6.29,1.36-1.41,2.74-2.11,4.13-2.11,1.17,0,2.05.42,2.66,1.26s.9,2.05.9,3.64ZM533.41,178.65c0-1.56-.23-2.64-.68-3.25-.43-.57-1.01-.85-1.74-.85s-1.4.28-2.02.85c-.67.61-1.19,1.52-1.57,2.71-.34,1.08-.51,2.22-.51,3.39,0,1.34.2,2.33.6,2.96.46.72,1.14,1.08,2.03,1.08.78,0,1.46-.29,2.05-.86,1.23-1.2,1.85-3.21,1.85-6.04Z"/>
        <path class="cls-1" d="M549.05,165.57c-.3,1.87-.66,4.34-1.08,7.43-.36,2.65-.66,5.03-.91,7.15-.27,2.32-.4,3.95-.4,4.88,0,.15.06.22.19.22.36,0,.92-.25,1.68-.74.07-.05.13-.05.17,0,.06.06.12.12.15.19.03.05,0,.11-.06.2-.6.69-1.75,1.25-3.45,1.65-.31.07-.48.05-.49-.08-.01-.11,0-.64.06-1.57.04-.79.13-1.7.29-2.73.02-.12.02-.21.01-.27,0-.05-.03-.05-.06-.01-.03.04-.06.11-.11.22-.3.79-.89,1.71-1.79,2.75-.97,1.14-1.86,1.71-2.7,1.71-.77,0-1.41-.36-1.92-1.07-.58-.81-.88-1.93-.88-3.37,0-2.49.83-4.54,2.5-6.13,1.49-1.4,3-2.1,4.54-2.1.43,0,.74.03.9.09.2.06.32.03.35-.11.16-.96.33-2.37.52-4.24.13-1.36.19-2.33.19-2.91,0-.16-.07-.24-.22-.24-.48,0-1.17.14-2.06.43-.08.03-.14,0-.17-.09-.03-.08-.06-.19-.11-.32-.02-.06.03-.12.14-.17.38-.17,1.11-.39,2.18-.68,1.13-.3,1.88-.46,2.24-.46.22,0,.31.12.28.35ZM545.89,175.01c0-.12-.07-.21-.22-.27-.15-.06-.43-.08-.83-.08-1.57,0-2.85.84-3.86,2.53-.86,1.45-1.29,3-1.29,4.65,0,.99.17,1.77.52,2.32.31.5.71.75,1.19.75s1.04-.27,1.61-.79c.61-.56,1.12-1.28,1.52-2.17.38-.83.76-2.38,1.14-4.66.1-.59.18-1.35.24-2.28Z"/>
        <path class="cls-1" d="M559.92,174.86c0,.12-.13.29-.4.5-1.73,1.44-3.94,2.84-6.61,4.22-.16.06-.26.18-.29.35-.06.27-.08.69-.08,1.25,0,1.21.28,2.15.85,2.81.5.58,1.12.86,1.87.86,1.18,0,2.35-.52,3.53-1.56.07-.07.13-.07.2-.03.03.02.08.09.17.2.04.08.04.15,0,.19-.35.51-.88,1.01-1.59,1.49-1.41.97-2.7,1.45-3.88,1.45-.81,0-1.48-.45-2.03-1.36-.6-1-.9-2.36-.9-4.08,0-2.3.86-4.29,2.58-5.98,1.17-1.14,2.22-1.71,3.15-1.71,1.32,0,2.05.48,2.18,1.43.03.15.12.22.27.22.04,0,.17-.11.38-.33.21-.22.34-.32.38-.3.16.06.24.18.24.37ZM556.99,176.2c.02-.38-.11-.71-.38-1-.27-.29-.58-.43-.95-.43-.68,0-1.24.23-1.69.7-.54.53-.92,1.61-1.14,3.24-.02.12,0,.19.03.21.03,0,.08,0,.17-.04,1.46-.69,2.74-1.47,3.86-2.34.05-.03.08-.14.1-.33Z"/>
        <path class="cls-1" d="M571.21,174.3c0,.27-.12.52-.36.77-.27.27-.59.4-.95.4-.44,0-.96-.06-1.56-.18-.15-.03-.27,0-.38.08-.6.52-1.21,1.3-1.82,2.34-.84,1.44-1.4,2.87-1.65,4.28-.15.78-.35,2.17-.6,4.16-.03.19-.13.28-.31.28h-1.29c-.18,0-.25-.08-.22-.25.21-1.16.54-3.08.97-5.76.3-2.19.45-3.83.45-4.92,0-.18-.05-.25-.14-.24-.4.15-.9.48-1.5.98-.07.06-.13.07-.18.03-.05-.04-.11-.1-.2-.19-.04-.06-.03-.12.03-.18.83-.86,1.79-1.56,2.88-2.1.38-.2.64-.29.79-.29.14,0,.21.09.21.26,0,.25-.01.49-.04.71-.14,1.63-.29,2.99-.45,4.07-.05.25-.06.39-.03.4.05-.04.11-.15.2-.35.49-1.15,1.24-2.3,2.25-3.45.98-1.12,1.92-1.68,2.8-1.68.73,0,1.1.28,1.1.83Z"/>
        <path class="cls-1" d="M583.74,184.95c.04.08.03.14-.03.17-.45.4-1.07.75-1.86,1.04-.76.29-1.42.43-1.99.43-.19,0-.28-.11-.28-.33,0-.51.17-1.83.51-3.96.38-2.38.57-4.07.57-5.08,0-1.42-.28-2.13-.83-2.13-.68,0-1.56.87-2.61,2.61-.68,1.12-1.24,2.52-1.65,4.19-.41,1.6-.73,3.02-.97,4.26-.04.19-.14.28-.31.28h-.92c-.18,0-.25-.08-.22-.25.21-1.16.54-3.08.97-5.76.3-2.19.45-3.83.45-4.92,0-.19-.06-.25-.17-.21-.47.21-.97.53-1.47.95-.07.06-.14.06-.21,0-.04-.03-.09-.09-.17-.17-.04-.06-.03-.12.03-.18.33-.35.87-.79,1.61-1.31.71-.5,1.25-.83,1.6-.97.19-.07.37-.11.52-.11.12,0,.17.17.15.52-.17,2-.33,3.49-.49,4.45-.03.17-.04.29-.04.36,0,.09.03.11.07.07.04-.04.09-.13.17-.29.68-1.46,1.41-2.61,2.2-3.48.99-1.1,1.84-1.66,2.53-1.66,1.07,0,1.6.92,1.6,2.77,0,.93-.22,2.79-.65,5.58-.21,1.34-.32,2.46-.32,3.37,0,.23.09.33.26.28.68-.15,1.23-.39,1.67-.71.07-.06.13-.05.18.03.02.02.06.08.11.18Z"/>
        <path class="cls-1" d="M596.04,178.36c0,1.3-.33,2.57-1,3.83-.59,1.13-1.37,2.1-2.34,2.91-1.2,1-2.35,1.5-3.42,1.5-1.21,0-2.16-.47-2.87-1.42-.59-.8-.89-1.9-.89-3.31,0-2.25.94-4.35,2.82-6.29,1.36-1.41,2.74-2.11,4.13-2.11,1.17,0,2.05.42,2.66,1.26s.9,2.05.9,3.64ZM593.98,178.65c0-1.56-.23-2.64-.68-3.25-.43-.57-1.01-.85-1.74-.85s-1.4.28-2.02.85c-.67.61-1.19,1.52-1.57,2.71-.34,1.08-.51,2.22-.51,3.39,0,1.34.2,2.33.6,2.96.46.72,1.14,1.08,2.03,1.08.78,0,1.46-.29,2.05-.86,1.23-1.2,1.85-3.21,1.85-6.04Z"/>
        <path class="cls-1" d="M600,185.42c0,.33-.12.62-.36.85-.24.23-.5.35-.79.35-.78,0-1.17-.4-1.17-1.2,0-.89.46-1.34,1.39-1.34.61,0,.92.45.92,1.34Z"/>
      </g>
    </g>
  </g>
</svg>