<?xml version="1.0" encoding="UTF-8"?>
<svg id="Capa_2" data-name="Capa 2" xmlns="http://www.w3.org/2000/svg" viewBox="0 0 220.25 71.13">
  <defs>
    <style>
      .cls-1 {
        fill: #fff;
        stroke-width: 0px;
      }
    </style>
  </defs>
  <g id="Capa_1-2" data-name="Capa 1">
    <g>
      <path class="cls-1" d="M43.47,30.77c-.32.11-.11.76.22.86,5.7,2.47,13.24,7.53,13.24,17.75,0,7.53-3.66,12.48-8.82,15.93-5.17,3.66-13.99,4.95-19.26,4.95-3.01,0-13.56-.43-18.51-.43-2.8,0-5.38.11-7.1.11s-3.23-.54-3.23-1.51c0-.86,1.61-1.4,2.8-1.61,7.32-1.51,7.53-2.9,7.96-6.57.22-2.26.75-13.88.75-35.19,0-9.25-.22-15.28-.65-16.89-.54-2.37-.97-3.44-6.67-4.2-1.51-.32-2.9-.97-2.9-1.83s1.4-1.4,2.9-1.4h7.21c3.55,0,13.56-.75,17.97-.75,6.24,0,11.94,1.18,15.28,3.23,5.27,3.23,7.64,8.4,7.64,13.45,0,8.29-5.17,11.94-8.82,14.1ZM37.23,36.48c-2.8-1.51-6.99-2.15-10.98-2.15-2.26,0-4.2.65-4.52.86-.21.21-.65.75-.75,3.55-.32,3.55,0,17.43.43,20.98.11.76.65,2.58,1.61,3.66,2.15,2.26,5.7,3.66,7.21,3.66,8.5,0,15.71-6.56,15.71-16.57,0-6.46-3.66-11.41-8.72-13.99ZM27.12,3.44c-.65,0-3.23.43-4.52.86-.22.11-1.08,1.18-1.18,1.72-.21,1.72-.54,6.13-.54,23.68,0,.54.32,1.4,1.18,1.4,4.52,0,11.94-.97,14.64-2.69,3.44-2.37,5.7-6.46,5.7-10.98,0-8.61-5.81-13.99-15.28-13.99Z"/>
      <path class="cls-1" d="M111.04,48.21c0,9.04-5.38,15.93-9.36,18.51-4.41,3.12-8.93,4.3-13.77,4.3s-10.44-2.26-14.42-5.6c-4.63-3.77-7.96-10.98-7.96-16.46,0-8.07,3.44-13.34,7.53-16.79,3.23-2.9,8.82-6.02,16.14-6.02,10.65,0,21.84,8.39,21.84,22.06ZM80.48,32.39c-2.69,2.58-4.95,7.96-4.95,13.99,0,3.55.32,6.99,1.29,9.68,2.47,7.86,8.39,11.73,13.45,11.73,1.18,0,3.44-.65,6.13-3.34,2.69-2.9,4.63-9.47,4.63-14.31,0-5.38-1.18-11.73-5.06-16.46-2.26-2.48-5.92-4.2-8.82-4.2-2.15,0-4.41,1.07-6.67,2.9Z"/>
      <path class="cls-1" d="M120.72,30.13c3.66-1.29,7.32-2.91,8.61-3.66,1.29-.86,1.94-1.18,2.26-1.18.54,0,1.08.86,1.08,1.18,0,1.94-.22,3.87-.22,5.92,0,.43.54.65.65.43,4.09-3.87,8.82-6.67,12.16-6.67,4.52,0,5.6,2.8,5.6,3.77,0,.32-.32,1.08-.65,1.62-1.29,1.83-3.87,4.95-4.63,5.27-.21.11-1.29-.11-1.61-.32-1.18-1.08-3.98-2.48-6.13-2.48-1.61,0-3.23.21-4.2,1.29-.75.75-1.08,1.61-1.08,2.37,0,2.15.43,21.42.54,23.03.22,3.12.97,5.16,2.8,5.6,1.29.21,3.34.75,4.84,1.18,1.72.54,2.04,1.29,2.04,1.72,0,.65-.97,1.08-2.69,1.08-2.8,0-6.99-.54-13.24-.54-3.01,0-4.52.43-7.1.43-1.18,0-2.26-.43-2.26-1.4,0-.65,1.4-1.08,2.15-1.4,4.09-1.4,4.41-2.48,4.52-8.93v-20.01c0-1.29,0-2.69-1.08-3.44-2.37-1.83-3.77-2.69-3.77-3.12,0-.21.32-1.4,1.4-1.72Z"/>
      <path class="cls-1" d="M199.38,48.21c0,9.04-5.38,15.93-9.36,18.51-4.41,3.12-8.93,4.3-13.77,4.3s-10.44-2.26-14.42-5.6c-4.63-3.77-7.96-10.98-7.96-16.46,0-8.07,3.44-13.34,7.53-16.79,3.23-2.9,8.82-6.02,16.14-6.02,10.65,0,21.84,8.39,21.84,22.06ZM168.82,32.39c-2.69,2.58-4.95,7.96-4.95,13.99,0,3.55.32,6.99,1.29,9.68,2.47,7.86,8.39,11.73,13.45,11.73,1.18,0,3.44-.65,6.13-3.34,2.69-2.9,4.63-9.47,4.63-14.31,0-5.38-1.18-11.73-5.06-16.46-2.26-2.48-5.92-4.2-8.82-4.2-2.15,0-4.41,1.07-6.67,2.9Z"/>
      <path class="cls-1" d="M220.25,64.57c-.11,3.77-2.8,6.56-6.35,6.56-2.8,0-6.24-1.83-6.24-6.56s4.2-6.57,6.24-6.57c4.84,0,6.35,4.3,6.35,6.57Z"/>
    </g>
  </g>
</svg>